<?xml version="1.0" standalone="no"?>
<!DOCTYPE svg PUBLIC "-//W3C//DTD SVG 1.1//EN" "http://www.w3.org/Graphics/SVG/1.1/DTD/svg11.dtd" >
<svg xmlns="http://www.w3.org/2000/svg" xmlns:xlink="http://www.w3.org/1999/xlink" version="1.1">
<metadata>
Created by FontForge 20200222 at Thu Jan 14 21:37:01 2016
 By convertio
Copyright C 2016 Hoefler &#38; Co. http:www.typography.com
</metadata>
<defs>
<font id="OperatorMono-XLightItalic" horiz-adv-x="550" >
  <font-face 
    font-family="Operator Mono"
    font-weight="275"
    font-style="italic"
    font-stretch="normal"
    units-per-em="1000"
    panose-1="2 0 0 9 0 0 0 0 0 0"
    ascent="800"
    descent="-200"
    x-height="480"
    cap-height="620"
    bbox="-65 -379 692.133 1121"
    underline-thickness="35"
    underline-position="-68"
    slope="-11"
    stemh="39"
    stemv="45"
    unicode-range="U+0020-E10D"
  />
<missing-glyph 
d="M8 -200l-15 1000h540l15 -1000h-540zM70 750l199 -390l188 390h-387zM481 676l-180 -376l191 -376zM60 -76l180 376l-191 376zM271 240l-187 -390h387z" />
    <glyph glyph-name=".notdef" 
d="M8 -200l-15 1000h540l15 -1000h-540zM70 750l199 -390l188 390h-387zM481 676l-180 -376l191 -376zM60 -76l180 376l-191 376zM271 240l-187 -390h387z" />
    <glyph glyph-name="NUL" horiz-adv-x="0" 
 />
    <glyph glyph-name="space" unicode=" " 
 />
    <glyph glyph-name="A" unicode="A" 
d="M417 -2c-7 71 -14 142 -22 214h-239c-35 -71 -70 -142 -104 -212h-46c101 207 207 416 316 623h66c27 -207 52 -414 73 -621zM345 582c-58 -111 -115 -222 -171 -334h217c-12 111 -25 223 -39 334h-7z" />
    <glyph glyph-name="B" unicode="B" 
d="M481 183c0 -106 -110 -218 -418 -183l120 619c229 32 328 -33 328 -123c0 -83 -72 -151 -188 -177c92 -13 158 -65 158 -136zM468 486c0 71 -77 118 -247 99l-50 -257c210 7 297 77 297 158zM437 176c0 76 -79 130 -272 120l-50 -258c227 -20 322 54 322 138z" />
    <glyph glyph-name="C" unicode="C" 
d="M379 633c108 0 136 -78 129 -219l-43 -1c3 114 -9 180 -95 180c-141 0 -251 -183 -251 -364c0 -193 123 -247 332 -163l-4 -44c-230 -86 -373 -11 -373 197c0 212 133 414 305 414z" />
    <glyph glyph-name="D" unicode="D" 
d="M515 380c0 -229 -154 -421 -460 -380l120 619c212 37 340 -42 340 -239zM470 375c0 165 -93 230 -257 210l-107 -549c247 -22 364 142 364 339z" />
    <glyph glyph-name="E" unicode="E" 
d="M435 40l-10 -40h-354l120 620h356l-8 -40h-311l-48 -247h265l-7 -36h-265l-49 -257h311z" />
    <glyph glyph-name="F" unicode="F" 
d="M446 284h-275l-55 -284h-44l120 620h368l-7 -40h-325l-50 -260h275z" />
    <glyph glyph-name="G" unicode="G" 
d="M393 -110l-41 -1l27 120c-188 -63 -306 16 -306 210c0 214 135 414 294 414c103 0 137 -70 131 -219h-42c3 114 -10 179 -94 179c-138 0 -244 -185 -244 -364c0 -180 99 -241 270 -179l42 187l44 2z" />
    <glyph glyph-name="H" unicode="H" 
d="M375 0l57 297h-278l-57 -297h-45l120 620h45l-56 -287h278l56 287h45l-120 -620h-45z" />
    <glyph glyph-name="I" unicode="I" 
d="M254 37h158l-8 -37h-358l8 37h155l106 546h-159l7 37h358l-7 -37h-154z" />
    <glyph glyph-name="J" unicode="J" 
d="M52 -12l8 42c142 -1 210 4 243 37c22 22 33 59 59 195l63 321h-216l8 37h259l-67 -351c-30 -159 -44 -196 -70 -222c-42 -42 -121 -59 -287 -59z" />
    <glyph glyph-name="K" unicode="K" 
d="M420 -4l-218 317l319 307h52l-317 -308l213 -309zM186 620h45l-121 -620h-45z" />
    <glyph glyph-name="L" unicode="L" 
d="M442 0h-370l120 620h45l-112 -580h327z" />
    <glyph glyph-name="M" unicode="M" 
d="M230 622l33 -470h2l222 468h70l-120 -620h-45l113 563h-4l-228 -473h-44l-34 473h-3l-108 -563h-42l120 618z" />
    <glyph glyph-name="N" unicode="N" 
d="M368 0l-161 565h-5l-108 -565h-42l119 619l61 2l156 -551h5l106 550h42l-120 -620h-53z" />
    <glyph glyph-name="O" unicode="O" 
d="M355 632c101 0 167 -80 167 -230c0 -203 -120 -414 -285 -414c-101 0 -167 80 -167 230c0 203 120 414 285 414zM246 28c134 0 231 186 231 370c0 129 -52 194 -131 194c-134 0 -231 -186 -231 -370c0 -129 52 -194 131 -194z" />
    <glyph glyph-name="P" unicode="P" 
d="M110 0h-45l120 618c251 31 352 -47 352 -155c0 -138 -141 -227 -385 -246zM492 457c0 86 -79 143 -269 124l-62 -319c215 6 331 79 331 195z" />
    <glyph glyph-name="Q" unicode="Q" 
d="M422 -126l-269 122l11 31c183 78 318 234 318 394c0 107 -51 174 -146 174c-153 0 -268 -203 -177 -489l-38 -15c-108 306 32 542 227 542c117 0 179 -85 179 -206c0 -174 -133 -327 -308 -413l224 -102z" />
    <glyph glyph-name="R" unicode="R" 
d="M436 -4l-198 280l1 3c159 69 230 121 230 201c0 77 -81 121 -250 103l-113 -583h-45l120 619c237 30 333 -36 333 -131c0 -93 -76 -156 -218 -219l189 -265z" />
    <glyph glyph-name="S" unicode="S" 
d="M501 466l-43 -8c-12 93 -55 134 -133 134c-83 0 -142 -61 -142 -129c0 -130 267 -187 267 -326c0 -99 -116 -188 -420 -120l10 46c276 -68 366 -7 366 66c0 118 -268 182 -268 327c0 90 86 175 201 175c96 0 148 -58 162 -165z" />
    <glyph glyph-name="T" unicode="T" 
d="M364 580l-113 -580h-45l113 580h-208l7 40h461l-7 -40h-208z" />
    <glyph glyph-name="U" unicode="U" 
d="M133 210c-23 -117 12 -183 117 -183c88 0 143 54 165 168l83 425h45l-83 -425c-26 -134 -103 -210 -215 -210c-125 0 -185 81 -159 216l82 419h45z" />
    <glyph glyph-name="V" unicode="V" 
d="M261 0h-67c-29 207 -54 412 -73 618l43 4c18 -192 42 -387 67 -581h7c104 194 204 386 298 579h45c-100 -206 -209 -413 -320 -620z" />
    <glyph glyph-name="W" unicode="W" 
d="M339 0l-30 363l-170 -363h-58c6 117 31 353 70 620h44c-30 -197 -64 -471 -72 -568h4l180 387h34l31 -387h3c30 97 103 371 149 568h43c-64 -267 -132 -503 -171 -620h-57z" />
    <glyph glyph-name="X" unicode="X" 
d="M410 -3l-123 282l-225 -279h-50l256 312l-136 305l44 6l124 -281l225 278h51l-257 -312l136 -305z" />
    <glyph glyph-name="Y" unicode="Y" 
d="M250 0h-45l41 213l-131 406l46 2l117 -365l257 364h49l-294 -413z" />
    <glyph glyph-name="Z" unicode="Z" 
d="M431 0h-401l6 39l454 542l-340 -1l8 40h390l-7 -39l-453 -542l350 1z" />
    <glyph glyph-name="a" unicode="a" 
d="M182 32c52 0 132 54 185 112l57 292c-39 10 -76 15 -104 15c-120 0 -215 -141 -215 -299c0 -83 33 -120 77 -120zM510 32c-134 -79 -168 -34 -152 68c-58 -59 -135 -109 -192 -109c-61 0 -105 50 -105 152c0 182 123 346 284 346c38 0 79 -6 129 -19l-70 -351
c-17 -86 -9 -111 99 -63z" />
    <glyph glyph-name="b" unicode="b" 
d="M203 -9c-38 0 -86 8 -136 21l133 686l43 4l-62 -322c57 60 136 111 195 111c63 0 111 -54 111 -161c0 -179 -121 -339 -284 -339zM228 29c122 0 216 138 216 293c0 87 -38 128 -83 128c-56 0 -136 -56 -189 -116l-56 -288c43 -11 82 -17 112 -17z" />
    <glyph glyph-name="c" unicode="c" 
d="M485 342h-41c-2 83 -30 109 -89 109c-124 0 -229 -128 -229 -274c0 -144 118 -190 317 -105l10 -25c-228 -118 -370 -41 -370 125c0 164 132 318 281 318c84 0 122 -46 121 -148z" />
    <glyph glyph-name="d" unicode="d" 
d="M186 32c54 0 129 47 180 104l59 299c-42 12 -81 18 -110 18c-119 0 -211 -140 -211 -294c0 -85 36 -127 82 -127zM512 32c-130 -77 -167 -35 -154 61c-56 -57 -131 -102 -188 -102c-63 0 -109 54 -109 160c0 180 119 339 279 339c28 0 59 -3 93 -10l43 218l45 4
l-114 -578c-18 -91 -10 -116 97 -68z" />
    <glyph glyph-name="e" unicode="e" 
d="M458 53c-246 -127 -384 -48 -384 116c0 151 118 322 282 322c81 0 130 -42 130 -108c0 -112 -136 -181 -369 -199v-9c0 -145 117 -189 332 -97zM348 452c-128 0 -212 -120 -228 -238c193 16 323 68 323 163c0 45 -36 75 -95 75z" />
    <glyph glyph-name="f" unicode="f" 
d="M394 -13c0 -99 -81 -166 -166 -166c-77 0 -146 64 -146 220c0 74 14 153 37 230l-30 18l6 23h37c74 209 215 392 346 392c99 0 126 -106 -12 -236l-18 15c99 105 85 177 17 177c-104 0 -225 -161 -291 -348l313 -2l-6 -36l-302 3c148 -105 215 -207 215 -290zM243 -141
c59 0 114 45 114 119c0 80 -59 175 -202 277c-20 -71 -32 -144 -32 -212c0 -135 57 -184 120 -184z" />
    <glyph glyph-name="g" unicode="g" 
d="M200 61c61 0 127 53 179 148c13 73 37 156 59 213c-41 20 -81 30 -115 30c-123 0 -214 -134 -214 -271c0 -80 40 -120 91 -120zM415 -98c-27 -54 -128 -88 -361 -72l5 45c216 -19 291 7 311 27c30 30 4 105 4 234v15c-48 -74 -115 -132 -188 -132c-71 0 -120 55 -120 155
c0 166 120 316 279 316c37 0 74 -9 112 -25c8 15 14 24 19 24c14 0 31 -9 31 -19c0 -23 -43 -153 -89 -254c-2 -24 -3 -49 -3 -66c0 -140 22 -204 0 -248z" />
    <glyph glyph-name="h" unicode="h" 
d="M510 31c-107 -66 -154 -43 -154 13c0 78 71 255 71 342c0 42 -19 64 -58 64c-53 0 -126 -43 -205 -133l-61 -317h-43l135 698l44 4l-66 -339c77 86 155 127 218 127c58 0 82 -38 82 -88c0 -98 -72 -279 -72 -342c0 -33 17 -42 98 -4z" />
    <glyph glyph-name="i" unicode="i" 
d="M344 568l-42 -3l30 130l50 2zM462 39c-225 -88 -308 -53 -274 77l83 322l-189 -36l-3 26l204 53l42 -2l-94 -358c-24 -94 14 -118 223 -55z" />
    <glyph glyph-name="j" unicode="j" 
d="M399 568l-43 -3l33 131l49 2zM12 -174l2 44c184 -2 209 2 230 23c45 45 -9 205 83 547l-191 -26l-5 25l211 42l38 -1c-107 -371 -45 -549 -106 -610c-31 -31 -83 -43 -262 -44z" />
    <glyph glyph-name="k" unicode="k" 
d="M430 -4l-208 205c183 84 236 152 236 199c0 31 -22 49 -56 49c-55 0 -140 -42 -229 -134l-61 -315h-43l135 698l44 4l-66 -342c83 86 172 130 236 130c55 0 86 -31 86 -76c0 -66 -63 -140 -225 -214l202 -196z" />
    <glyph glyph-name="l" unicode="l" 
d="M448 66c-181 -112 -298 -100 -310 64c-17 -11 -37 -25 -49 -33l-15 25c16 11 44 30 63 43c2 268 177 540 306 540c54 0 84 -36 84 -95c0 -112 -89 -270 -347 -453c5 -153 93 -157 255 -65zM430 661c-98 0 -240 -234 -249 -467c228 168 303 307 303 400
c0 43 -21 67 -54 67z" />
    <glyph glyph-name="m" unicode="m" 
d="M530 21c-85 -49 -123 -36 -123 14c0 72 72 287 72 374c0 25 -8 42 -29 42c-27 0 -69 -27 -117 -81l-73 -370h-43l71 358c11 57 7 93 -24 93c-26 0 -67 -25 -114 -78c-16 -85 -47 -244 -72 -373h-43c46 229 66 336 89 478l42 4c-3 -22 -8 -49 -11 -71c47 53 90 79 125 79
c39 0 60 -31 56 -84c49 57 94 84 130 84s58 -25 58 -70c0 -98 -72 -314 -72 -371c0 -24 13 -26 67 -3z" />
    <glyph glyph-name="n" unicode="n" 
d="M510 31c-107 -66 -154 -43 -154 13c0 78 71 253 71 341c0 43 -19 65 -58 65c-52 0 -124 -39 -202 -121c-13 -71 -42 -216 -64 -329h-43c45 229 66 336 89 479l42 3c-5 -29 -11 -75 -17 -111c76 80 154 119 217 119c58 0 82 -38 82 -88c0 -98 -72 -279 -72 -342
c0 -33 17 -42 98 -4z" />
    <glyph glyph-name="o" unicode="o" 
d="M63 183c0 172 114 308 254 308c101 0 169 -67 169 -194c0 -175 -115 -307 -254 -307c-102 0 -169 65 -169 193zM442 289c0 102 -48 164 -135 164c-118 0 -200 -119 -200 -262c0 -103 48 -163 135 -163c117 0 200 116 200 261z" />
    <glyph glyph-name="p" unicode="p" 
d="M228 28c124 0 216 138 216 294c0 86 -37 128 -83 128c-56 0 -138 -56 -190 -116c-12 -66 -32 -173 -54 -288c42 -12 80 -18 111 -18zM74 -172l-42 -4c63 327 94 486 122 655l42 3c-5 -27 -12 -70 -18 -105c58 61 138 114 198 114c63 0 111 -54 111 -161
c0 -180 -121 -339 -284 -339c-28 0 -60 4 -95 11c-11 -58 -23 -117 -34 -174z" />
    <glyph glyph-name="q" unicode="q" 
d="M492 -138c-136 -72 -179 -46 -159 58l33 172c-57 -56 -133 -101 -191 -101c-65 0 -113 54 -113 160c0 180 121 339 283 339c41 0 92 -9 139 -22l-107 -537c-14 -74 -4 -86 107 -45zM190 31c55 0 133 47 185 104l58 301c-40 11 -82 17 -112 17c-124 0 -216 -139 -216 -294
c0 -86 38 -128 85 -128z" />
    <glyph glyph-name="r" unicode="r" 
d="M508 25c-196 -84 -268 -19 -88 408c-72 -23 -145 -37 -197 -35c-31 -71 -90 -162 -147 -228l-21 17c62 77 106 145 133 216c-22 6 -35 17 -35 35c0 30 37 75 70 75c15 0 24 -10 24 -30c0 -13 -4 -30 -10 -49c59 4 139 21 220 55l20 -16c-178 -441 -141 -483 24 -422z" />
    <glyph glyph-name="s" unicode="s" 
d="M451 114c0 -72 -67 -140 -327 -119l2 42c239 -24 282 19 282 72c0 67 -96 147 -131 240c-43 -44 -102 -95 -183 -150l-15 22c98 73 149 119 188 168c-1 8 -2 16 -2 24c0 49 41 114 77 114c38 0 40 -54 -30 -139c20 -91 139 -192 139 -274z" />
    <glyph glyph-name="t" unicode="t" 
d="M452 51c-249 -123 -318 -47 -283 106l65 287h-94l10 35h67l65 138l35 2l-32 -140h199l-7 -35h-200l-65 -285c-28 -126 9 -173 231 -82z" />
    <glyph glyph-name="u" unicode="u" 
d="M373 116l1 3c-75 -84 -138 -129 -199 -129c-71 0 -108 57 -78 184l38 165l-35 21l65 119l45 3l-70 -305c-25 -107 2 -146 52 -146c54 0 110 44 190 132l63 317h42l-71 -361c-17 -86 -11 -111 91 -63l8 -24c-135 -77 -166 -35 -142 84z" />
    <glyph glyph-name="v" unicode="v" 
d="M236 38c90 148 173 295 254 442h47c-90 -160 -184 -324 -282 -484h-62c-35 162 -66 322 -92 483l44 2c24 -147 51 -294 84 -443h7z" />
    <glyph glyph-name="w" unicode="w" 
d="M343 0l-51 299l-163 -299h-46c4 127 17 303 40 480h44c-18 -148 -32 -284 -43 -414h3l162 299h31l49 -300h4c41 132 79 268 116 415h47c-46 -167 -95 -323 -153 -480h-40z" />
    <glyph glyph-name="x" unicode="x" 
d="M390 -2l-125 214l-206 -212h-50l235 241l-140 237l45 4l128 -212l206 210h50l-235 -240l139 -237z" />
    <glyph glyph-name="y" unicode="y" 
d="M408 -99c-26 -52 -120 -87 -346 -72l7 47c209 -19 277 6 297 25c29 30 17 110 17 257c-57 -73 -139 -136 -213 -136c-89 0 -145 88 -7 458l43 1c-124 -343 -88 -418 -17 -418c55 0 135 59 196 138c12 125 68 287 89 287c14 0 31 -7 31 -18c0 -25 -39 -168 -82 -262
c-1 -18 -2 -37 -2 -55c0 -133 9 -208 -13 -252z" />
    <glyph glyph-name="z" unicode="z" 
d="M422 0h-388l7 38l413 404l-329 -1l11 39h375l-7 -37l-414 -405l343 1z" />
    <glyph glyph-name="Aacute" unicode="&#xc1;" 
d="M266 720c65 43 151 116 203 170l36 -38c-60 -51 -156 -113 -227 -153zM417 -2c-7 71 -14 142 -22 214h-239c-35 -71 -70 -142 -104 -212h-46c101 207 207 416 316 623h66c27 -207 52 -414 73 -621zM345 582c-58 -111 -115 -222 -171 -334h217c-12 111 -25 223 -39 334h-7
z" />
    <glyph glyph-name="aacute" unicode="&#xe1;" 
d="M253 586c65 43 151 116 203 170l36 -38c-60 -51 -156 -113 -227 -153zM182 32c52 0 132 54 185 112l57 292c-39 10 -76 15 -104 15c-120 0 -215 -141 -215 -299c0 -83 33 -120 77 -120zM510 32c-134 -79 -168 -34 -152 68c-58 -59 -135 -109 -192 -109
c-61 0 -105 50 -105 152c0 182 123 346 284 346c38 0 79 -6 129 -19l-70 -351c-17 -86 -9 -111 99 -63z" />
    <glyph glyph-name="Abreve" unicode="&#x102;" 
d="M546 867l26 -18c-66 -89 -131 -141 -198 -141c-63 0 -110 45 -148 145l36 17c36 -90 69 -124 121 -124c57 0 103 44 163 121zM417 -2c-7 71 -14 142 -22 214h-239c-35 -71 -70 -142 -104 -212h-46c101 207 207 416 316 623h66c27 -207 52 -414 73 -621zM345 582
c-58 -111 -115 -222 -171 -334h217c-12 111 -25 223 -39 334h-7z" />
    <glyph glyph-name="abreve" unicode="&#x103;" 
d="M533 733l26 -18c-66 -89 -131 -141 -198 -141c-63 0 -110 45 -148 145l36 17c36 -90 69 -124 121 -124c57 0 103 44 163 121zM182 32c52 0 132 54 185 112l57 292c-39 10 -76 15 -104 15c-120 0 -215 -141 -215 -299c0 -83 33 -120 77 -120zM510 32
c-134 -79 -168 -34 -152 68c-58 -59 -135 -109 -192 -109c-61 0 -105 50 -105 152c0 182 123 346 284 346c38 0 79 -6 129 -19l-70 -351c-17 -86 -9 -111 99 -63z" />
    <glyph glyph-name="Acircumflex" unicode="&#xc2;" 
d="M506 701l-106 128l-166 -124l-21 26l195 147h1l128 -151zM417 -2c-7 71 -14 142 -22 214h-239c-35 -71 -70 -142 -104 -212h-46c101 207 207 416 316 623h66c27 -207 52 -414 73 -621zM345 582c-58 -111 -115 -222 -171 -334h217c-12 111 -25 223 -39 334h-7z" />
    <glyph glyph-name="acircumflex" unicode="&#xe2;" 
d="M493 567l-106 128l-166 -124l-21 26l195 147h1l128 -151zM182 32c52 0 132 54 185 112l57 292c-39 10 -76 15 -104 15c-120 0 -215 -141 -215 -299c0 -83 33 -120 77 -120zM510 32c-134 -79 -168 -34 -152 68c-58 -59 -135 -109 -192 -109c-61 0 -105 50 -105 152
c0 182 123 346 284 346c38 0 79 -6 129 -19l-70 -351c-17 -86 -9 -111 99 -63z" />
    <glyph glyph-name="Adieresis" unicode="&#xc4;" 
d="M490 712l-42 -2l30 130l50 1zM281 709l-42 -1l31 129l49 1zM417 -2c-7 71 -14 142 -22 214h-239c-35 -71 -70 -142 -104 -212h-46c101 207 207 416 316 623h66c27 -207 52 -414 73 -621zM345 582c-58 -111 -115 -222 -171 -334h217c-12 111 -25 223 -39 334h-7z" />
    <glyph glyph-name="adieresis" unicode="&#xe4;" 
d="M477 578l-42 -2l30 130l50 1zM268 575l-42 -1l31 129l49 1zM182 32c52 0 132 54 185 112l57 292c-39 10 -76 15 -104 15c-120 0 -215 -141 -215 -299c0 -83 33 -120 77 -120zM510 32c-134 -79 -168 -34 -152 68c-58 -59 -135 -109 -192 -109c-61 0 -105 50 -105 152
c0 182 123 346 284 346c38 0 79 -6 129 -19l-70 -351c-17 -86 -9 -111 99 -63z" />
    <glyph glyph-name="Agrave" unicode="&#xc0;" 
d="M462 711l-15 -20c-55 40 -136 113 -184 170l39 36c40 -59 109 -140 160 -186zM417 -2c-7 71 -14 142 -22 214h-239c-35 -71 -70 -142 -104 -212h-46c101 207 207 416 316 623h66c27 -207 52 -414 73 -621zM345 582c-58 -111 -115 -222 -171 -334h217
c-12 111 -25 223 -39 334h-7z" />
    <glyph glyph-name="agrave" unicode="&#xe0;" 
d="M449 577l-15 -20c-55 40 -136 113 -184 170l39 36c40 -59 109 -140 160 -186zM182 32c52 0 132 54 185 112l57 292c-39 10 -76 15 -104 15c-120 0 -215 -141 -215 -299c0 -83 33 -120 77 -120zM510 32c-134 -79 -168 -34 -152 68c-58 -59 -135 -109 -192 -109
c-61 0 -105 50 -105 152c0 182 123 346 284 346c38 0 79 -6 129 -19l-70 -351c-17 -86 -9 -111 99 -63z" />
    <glyph glyph-name="Amacron" unicode="&#x100;" 
d="M544 796l-7 -38h-313l8 38h312zM417 -2c-7 71 -14 142 -22 214h-239c-35 -71 -70 -142 -104 -212h-46c101 207 207 416 316 623h66c27 -207 52 -414 73 -621zM345 582c-58 -111 -115 -222 -171 -334h217c-12 111 -25 223 -39 334h-7z" />
    <glyph glyph-name="amacron" unicode="&#x101;" 
d="M531 662l-7 -38h-313l8 38h312zM182 32c52 0 132 54 185 112l57 292c-39 10 -76 15 -104 15c-120 0 -215 -141 -215 -299c0 -83 33 -120 77 -120zM510 32c-134 -79 -168 -34 -152 68c-58 -59 -135 -109 -192 -109c-61 0 -105 50 -105 152c0 182 123 346 284 346
c38 0 79 -6 129 -19l-70 -351c-17 -86 -9 -111 99 -63z" />
    <glyph glyph-name="Aogonek" unicode="&#x104;" 
d="M433 -166c-134 -72 -205 -35 -205 20c0 47 56 101 188 157c-7 66 -14 134 -21 201h-239c-35 -71 -70 -142 -104 -212h-46c101 207 207 416 316 623h66c27 -207 52 -414 73 -621c-135 -52 -190 -99 -190 -137c0 -35 44 -54 154 -8zM345 582c-58 -111 -115 -222 -171 -334
h217c-12 111 -25 223 -39 334h-7z" />
    <glyph glyph-name="aogonek" unicode="&#x105;" 
d="M482 -165c-134 -72 -205 -35 -205 20c0 45 37 92 121 144c-40 3 -50 39 -40 101c-58 -59 -135 -109 -192 -109c-61 0 -105 50 -105 152c0 182 123 346 284 346c38 0 79 -6 129 -19l-70 -351c-17 -86 -9 -111 99 -63l7 -24c-135 -68 -190 -118 -190 -166
c0 -35 44 -54 154 -8zM182 32c52 0 132 54 185 112l57 292c-39 10 -76 15 -104 15c-120 0 -215 -141 -215 -299c0 -83 33 -120 77 -120z" />
    <glyph glyph-name="Aring" unicode="&#xc5;" 
d="M391 892c72 0 124 -42 124 -98c0 -61 -57 -109 -135 -109c-72 0 -124 42 -124 98c0 61 57 109 135 109zM387 861c-54 0 -95 -33 -95 -74c0 -40 38 -71 92 -71c55 0 96 33 96 74c0 39 -39 71 -93 71zM417 -2c-7 71 -14 142 -22 214h-239c-35 -71 -70 -142 -104 -212h-46
c101 207 207 416 316 623h66c27 -207 52 -414 73 -621zM345 582c-58 -111 -115 -222 -171 -334h217c-12 111 -25 223 -39 334h-7z" />
    <glyph glyph-name="aring" unicode="&#xe5;" 
d="M378 758c72 0 124 -42 124 -98c0 -61 -57 -109 -135 -109c-72 0 -124 42 -124 98c0 61 57 109 135 109zM374 727c-54 0 -95 -33 -95 -74c0 -40 38 -71 92 -71c55 0 96 33 96 74c0 39 -39 71 -93 71zM182 32c52 0 132 54 185 112l57 292c-39 10 -76 15 -104 15
c-120 0 -215 -141 -215 -299c0 -83 33 -120 77 -120zM510 32c-134 -79 -168 -34 -152 68c-58 -59 -135 -109 -192 -109c-61 0 -105 50 -105 152c0 182 123 346 284 346c38 0 79 -6 129 -19l-70 -351c-17 -86 -9 -111 99 -63z" />
    <glyph glyph-name="Aringacute" unicode="&#x1fa;" 
d="M333 951c65 43 151 116 203 170l36 -38c-60 -51 -156 -113 -227 -153zM391 892c72 0 124 -42 124 -98c0 -61 -57 -109 -135 -109c-72 0 -124 42 -124 98c0 61 57 109 135 109zM387 861c-54 0 -95 -33 -95 -74c0 -40 38 -71 92 -71c55 0 96 33 96 74c0 39 -39 71 -93 71z
M417 -2c-7 71 -14 142 -22 214h-239c-35 -71 -70 -142 -104 -212h-46c101 207 207 416 316 623h66c27 -207 52 -414 73 -621zM345 582c-58 -111 -115 -222 -171 -334h217c-12 111 -25 223 -39 334h-7z" />
    <glyph glyph-name="aringacute" unicode="&#x1fb;" 
d="M320 821c65 43 151 116 203 170l36 -38c-60 -51 -156 -113 -227 -153zM378 758c72 0 124 -42 124 -98c0 -61 -57 -109 -135 -109c-72 0 -124 42 -124 98c0 61 57 109 135 109zM374 727c-54 0 -95 -33 -95 -74c0 -40 38 -71 92 -71c55 0 96 33 96 74c0 39 -39 71 -93 71z
M182 32c52 0 132 54 185 112l57 292c-39 10 -76 15 -104 15c-120 0 -215 -141 -215 -299c0 -83 33 -120 77 -120zM510 32c-134 -79 -168 -34 -152 68c-58 -59 -135 -109 -192 -109c-61 0 -105 50 -105 152c0 182 123 346 284 346c38 0 79 -6 129 -19l-70 -351
c-17 -86 -9 -111 99 -63z" />
    <glyph glyph-name="Atilde" unicode="&#xc3;" 
d="M456 746c33 0 68 51 106 114l25 -15c-50 -87 -93 -135 -141 -135c-68 0 -79 115 -130 115c-33 0 -68 -45 -106 -108l-25 15c50 87 94 129 141 129c68 0 79 -115 130 -115zM417 -2c-7 71 -14 142 -22 214h-239c-35 -71 -70 -142 -104 -212h-46c101 207 207 416 316 623h66
c27 -207 52 -414 73 -621zM345 582c-58 -111 -115 -222 -171 -334h217c-12 111 -25 223 -39 334h-7z" />
    <glyph glyph-name="atilde" unicode="&#xe3;" 
d="M443 612c33 0 68 51 106 114l25 -15c-50 -87 -93 -135 -141 -135c-68 0 -79 115 -130 115c-33 0 -68 -45 -106 -108l-25 15c50 87 94 129 141 129c68 0 79 -115 130 -115zM182 32c52 0 132 54 185 112l57 292c-39 10 -76 15 -104 15c-120 0 -215 -141 -215 -299
c0 -83 33 -120 77 -120zM510 32c-134 -79 -168 -34 -152 68c-58 -59 -135 -109 -192 -109c-61 0 -105 50 -105 152c0 182 123 346 284 346c38 0 79 -6 129 -19l-70 -351c-17 -86 -9 -111 99 -63z" />
    <glyph glyph-name="Cacute" unicode="&#x106;" 
d="M267 730c65 43 151 116 203 170l36 -38c-60 -51 -156 -113 -227 -153zM379 633c108 0 136 -78 129 -219l-43 -1c3 114 -9 180 -95 180c-141 0 -251 -183 -251 -364c0 -193 123 -247 332 -163l-4 -44c-230 -86 -373 -11 -373 197c0 212 133 414 305 414z" />
    <glyph glyph-name="cacute" unicode="&#x107;" 
d="M257 587c65 43 151 116 203 170l36 -38c-60 -51 -156 -113 -227 -153zM485 342h-41c-2 83 -30 109 -89 109c-124 0 -229 -128 -229 -274c0 -144 118 -190 317 -105l10 -25c-228 -118 -370 -41 -370 125c0 164 132 318 281 318c84 0 122 -46 121 -148z" />
    <glyph glyph-name="Ccaron" unicode="&#x10c;" 
d="M366 708h-1l-129 151l32 26l105 -128l166 124l22 -26zM379 633c108 0 136 -78 129 -219l-43 -1c3 114 -9 180 -95 180c-141 0 -251 -183 -251 -364c0 -193 123 -247 332 -163l-4 -44c-230 -86 -373 -11 -373 197c0 212 133 414 305 414z" />
    <glyph glyph-name="ccaron" unicode="&#x10d;" 
d="M356 565h-1l-129 151l32 26l105 -128l166 124l22 -26zM485 342h-41c-2 83 -30 109 -89 109c-124 0 -229 -128 -229 -274c0 -144 118 -190 317 -105l10 -25c-228 -118 -370 -41 -370 125c0 164 132 318 281 318c84 0 122 -46 121 -148z" />
    <glyph glyph-name="Ccedilla" unicode="&#xc7;" 
d="M336 -176l-42 -1c7 102 -22 144 -63 144c-39 0 -73 -42 -107 -114l-26 9c32 77 68 121 107 135c-84 27 -131 102 -131 222c0 212 133 414 305 414c108 0 136 -78 129 -219l-43 -1c3 114 -9 180 -95 180c-141 0 -251 -183 -251 -364c0 -193 123 -247 332 -163l-4 -44
c-59 -22 -113 -34 -160 -35c34 -24 55 -77 49 -163z" />
    <glyph glyph-name="ccedilla" unicode="&#xe7;" 
d="M337 -181l-42 -1c7 102 -22 144 -63 144c-39 0 -73 -42 -107 -114l-26 9c33 80 71 125 113 137c-83 17 -129 83 -129 178c0 164 132 318 281 318c84 0 122 -46 121 -148h-41c-2 83 -30 109 -89 109c-124 0 -229 -128 -229 -274c0 -144 118 -190 317 -105l10 -25
c-68 -35 -128 -53 -180 -56c43 -19 70 -74 64 -172z" />
    <glyph glyph-name="Cdotaccent" unicode="&#x10a;" 
d="M386 720l-42 -1l31 129l50 1zM379 633c108 0 136 -78 129 -219l-43 -1c3 114 -9 180 -95 180c-141 0 -251 -183 -251 -364c0 -193 123 -247 332 -163l-4 -44c-230 -86 -373 -11 -373 197c0 212 133 414 305 414z" />
    <glyph glyph-name="cdotaccent" unicode="&#x10b;" 
d="M376 577l-42 -1l31 129l50 1zM485 342h-41c-2 83 -30 109 -89 109c-124 0 -229 -128 -229 -274c0 -144 118 -190 317 -105l10 -25c-228 -118 -370 -41 -370 125c0 164 132 318 281 318c84 0 122 -46 121 -148z" />
    <glyph glyph-name="Dcaron" unicode="&#x10e;" 
d="M385 703h-1l-129 151l32 26l105 -128l166 124l22 -26zM515 380c0 -229 -154 -421 -460 -380l120 619c212 37 340 -42 340 -239zM470 375c0 165 -93 230 -257 210l-107 -549c247 -22 364 142 364 339z" />
    <glyph glyph-name="dcaron" unicode="&#x10f;" 
d="M629 797l58 4c2 -74 -18 -157 -98 -249l-20 12c69 95 68 161 60 233zM186 32c54 0 129 47 180 104l59 299c-42 12 -81 18 -110 18c-119 0 -211 -140 -211 -294c0 -85 36 -127 82 -127zM512 32c-130 -77 -167 -35 -154 61c-56 -57 -131 -102 -188 -102
c-63 0 -109 54 -109 160c0 180 119 339 279 339c28 0 59 -3 93 -10l43 218l45 4l-114 -578c-18 -91 -10 -116 97 -68z" />
    <glyph glyph-name="Dcroat" unicode="&#x110;" 
d="M515 380c0 -229 -154 -421 -460 -380l58 298h-80l7 35h80l55 286c212 37 340 -42 340 -239zM312 298h-155l-51 -262c247 -22 364 142 364 339c0 165 -93 230 -257 210l-49 -252h157z" />
    <glyph glyph-name="dcroat" unicode="&#x111;" 
d="M186 32c54 0 129 47 180 104l59 299c-42 12 -81 18 -110 18c-119 0 -211 -140 -211 -294c0 -85 36 -127 82 -127zM512 32c-130 -77 -167 -35 -154 61c-56 -57 -131 -102 -188 -102c-63 0 -109 54 -109 160c0 180 119 339 279 339c28 0 59 -3 93 -10l22 108h-145l7 33h144
l15 77l45 4l-16 -81h76l-6 -33h-76l-92 -464c-18 -91 -10 -116 97 -68z" />
    <glyph glyph-name="Eacute" unicode="&#xc9;" 
d="M281 717c65 43 151 116 203 170l36 -38c-60 -51 -156 -113 -227 -153zM435 40l-10 -40h-354l120 620h356l-8 -40h-311l-48 -247h265l-7 -36h-265l-49 -257h311z" />
    <glyph glyph-name="eacute" unicode="&#xe9;" 
d="M249 588c65 43 151 116 203 170l36 -38c-60 -51 -156 -113 -227 -153zM458 53c-246 -127 -384 -48 -384 116c0 151 118 322 282 322c81 0 130 -42 130 -108c0 -112 -136 -181 -369 -199v-9c0 -145 117 -189 332 -97zM348 452c-128 0 -212 -120 -228 -238
c193 16 323 68 323 163c0 45 -36 75 -95 75z" />
    <glyph glyph-name="Ebreve" unicode="&#x114;" 
d="M561 864l26 -18c-66 -89 -131 -141 -198 -141c-63 0 -110 45 -148 145l36 17c36 -90 69 -124 121 -124c57 0 103 44 163 121zM435 40l-10 -40h-354l120 620h356l-8 -40h-311l-48 -247h265l-7 -36h-265l-49 -257h311z" />
    <glyph glyph-name="ebreve" unicode="&#x115;" 
d="M529 735l26 -18c-66 -89 -131 -141 -198 -141c-63 0 -110 45 -148 145l36 17c36 -90 69 -124 121 -124c57 0 103 44 163 121zM458 53c-246 -127 -384 -48 -384 116c0 151 118 322 282 322c81 0 130 -42 130 -108c0 -112 -136 -181 -369 -199v-9c0 -145 117 -189 332 -97z
M348 452c-128 0 -212 -120 -228 -238c193 16 323 68 323 163c0 45 -36 75 -95 75z" />
    <glyph glyph-name="Ecaron" unicode="&#x11a;" 
d="M380 695h-1l-129 151l32 26l105 -128l166 124l22 -26zM435 40l-10 -40h-354l120 620h356l-8 -40h-311l-48 -247h265l-7 -36h-265l-49 -257h311z" />
    <glyph glyph-name="ecaron" unicode="&#x11b;" 
d="M348 566h-1l-129 151l32 26l105 -128l166 124l22 -26zM458 53c-246 -127 -384 -48 -384 116c0 151 118 322 282 322c81 0 130 -42 130 -108c0 -112 -136 -181 -369 -199v-9c0 -145 117 -189 332 -97zM348 452c-128 0 -212 -120 -228 -238c193 16 323 68 323 163
c0 45 -36 75 -95 75z" />
    <glyph glyph-name="Ecircumflex" unicode="&#xca;" 
d="M521 698l-106 128l-166 -124l-21 26l195 147h1l128 -151zM435 40l-10 -40h-354l120 620h356l-8 -40h-311l-48 -247h265l-7 -36h-265l-49 -257h311z" />
    <glyph glyph-name="ecircumflex" unicode="&#xea;" 
d="M489 569l-106 128l-166 -124l-21 26l195 147h1l128 -151zM458 53c-246 -127 -384 -48 -384 116c0 151 118 322 282 322c81 0 130 -42 130 -108c0 -112 -136 -181 -369 -199v-9c0 -145 117 -189 332 -97zM348 452c-128 0 -212 -120 -228 -238c193 16 323 68 323 163
c0 45 -36 75 -95 75z" />
    <glyph glyph-name="Edieresis" unicode="&#xcb;" 
d="M505 709l-42 -2l30 130l50 1zM296 706l-42 -1l31 129l49 1zM435 40l-10 -40h-354l120 620h356l-8 -40h-311l-48 -247h265l-7 -36h-265l-49 -257h311z" />
    <glyph glyph-name="edieresis" unicode="&#xeb;" 
d="M473 580l-42 -2l30 130l50 1zM264 577l-42 -1l31 129l49 1zM458 53c-246 -127 -384 -48 -384 116c0 151 118 322 282 322c81 0 130 -42 130 -108c0 -112 -136 -181 -369 -199v-9c0 -145 117 -189 332 -97zM348 452c-128 0 -212 -120 -228 -238c193 16 323 68 323 163
c0 45 -36 75 -95 75z" />
    <glyph glyph-name="Edotaccent" unicode="&#x116;" 
d="M400 707l-42 -1l31 129l50 1zM435 40l-10 -40h-354l120 620h356l-8 -40h-311l-48 -247h265l-7 -36h-265l-49 -257h311z" />
    <glyph glyph-name="edotaccent" unicode="&#x117;" 
d="M368 578l-42 -1l31 129l50 1zM458 53c-246 -127 -384 -48 -384 116c0 151 118 322 282 322c81 0 130 -42 130 -108c0 -112 -136 -181 -369 -199v-9c0 -145 117 -189 332 -97zM348 452c-128 0 -212 -120 -228 -238c193 16 323 68 323 163c0 45 -36 75 -95 75z" />
    <glyph glyph-name="Egrave" unicode="&#xc8;" 
d="M477 708l-15 -20c-55 40 -136 113 -184 170l39 36c40 -59 109 -140 160 -186zM435 40l-10 -40h-354l120 620h356l-8 -40h-311l-48 -247h265l-7 -36h-265l-49 -257h311z" />
    <glyph glyph-name="egrave" unicode="&#xe8;" 
d="M445 579l-15 -20c-55 40 -136 113 -184 170l39 36c40 -59 109 -140 160 -186zM458 53c-246 -127 -384 -48 -384 116c0 151 118 322 282 322c81 0 130 -42 130 -108c0 -112 -136 -181 -369 -199v-9c0 -145 117 -189 332 -97zM348 452c-128 0 -212 -120 -228 -238
c193 16 323 68 323 163c0 45 -36 75 -95 75z" />
    <glyph glyph-name="Emacron" unicode="&#x112;" 
d="M559 793l-7 -38h-313l8 38h312zM435 40l-10 -40h-354l120 620h356l-8 -40h-311l-48 -247h265l-7 -36h-265l-49 -257h311z" />
    <glyph glyph-name="emacron" unicode="&#x113;" 
d="M527 664l-7 -38h-313l8 38h312zM458 53c-246 -127 -384 -48 -384 116c0 151 118 322 282 322c81 0 130 -42 130 -108c0 -112 -136 -181 -369 -199v-9c0 -145 117 -189 332 -97zM348 452c-128 0 -212 -120 -228 -238c193 16 323 68 323 163c0 45 -36 75 -95 75z" />
    <glyph glyph-name="Eogonek" unicode="&#x118;" 
d="M397 -167c-134 -72 -205 -35 -205 20c0 44 50 95 167 147h-288l120 620h356l-8 -40h-311l-48 -247h265l-7 -36h-265l-49 -257h311l-10 -40c-134 -52 -190 -97 -190 -135c0 -35 43 -55 154 -9z" />
    <glyph glyph-name="eogonek" unicode="&#x119;" 
d="M380 -166c-134 -72 -205 -35 -205 20c0 44 34 90 110 139c-137 -19 -211 56 -211 176c0 151 118 322 282 322c81 0 130 -42 130 -108c0 -112 -136 -181 -369 -199v-9c0 -145 117 -189 332 -97l9 -25c-171 -72 -240 -137 -240 -188c0 -35 44 -54 154 -8zM348 452
c-128 0 -212 -120 -228 -238c193 16 323 68 323 163c0 45 -36 75 -95 75z" />
    <glyph glyph-name="Gbreve" unicode="&#x11e;" 
d="M539 877l26 -18c-66 -89 -131 -141 -198 -141c-63 0 -110 45 -148 145l36 17c36 -90 69 -124 121 -124c57 0 103 44 163 121zM393 -110l-41 -1l27 120c-188 -63 -306 16 -306 210c0 214 135 414 294 414c103 0 137 -70 131 -219h-42c3 114 -10 179 -94 179
c-138 0 -244 -185 -244 -364c0 -180 99 -241 270 -179l42 187l44 2z" />
    <glyph glyph-name="gbreve" unicode="&#x11f;" 
d="M519 734l26 -18c-66 -89 -131 -141 -198 -141c-63 0 -110 45 -148 145l36 17c36 -90 69 -124 121 -124c57 0 103 44 163 121zM200 61c61 0 127 53 179 148c13 73 37 156 59 213c-41 20 -81 30 -115 30c-123 0 -214 -134 -214 -271c0 -80 40 -120 91 -120zM415 -98
c-27 -54 -128 -88 -361 -72l5 45c216 -19 291 7 311 27c30 30 4 105 4 234v15c-48 -74 -115 -132 -188 -132c-71 0 -120 55 -120 155c0 166 120 316 279 316c37 0 74 -9 112 -25c8 15 14 24 19 24c14 0 31 -9 31 -19c0 -23 -43 -153 -89 -254c-2 -24 -3 -49 -3 -66
c0 -140 22 -204 0 -248z" />
    <glyph glyph-name="Gcommaaccent" unicode="&#x122;" 
d="M393 -110l-41 -1l27 120c-188 -63 -306 16 -306 210c0 214 135 414 294 414c103 0 137 -70 131 -219h-42c3 114 -10 179 -94 179c-138 0 -244 -185 -244 -364c0 -180 99 -241 270 -179l42 187l44 2zM115 -369c56 74 56 129 43 185l61 3c4 -59 -20 -128 -87 -198z" />
    <glyph glyph-name="gcommaaccent" unicode="&#x123;" 
d="M415 752c-56 -74 -56 -129 -43 -185l-61 -3c-4 59 20 128 87 198zM200 61c61 0 127 53 179 148c13 73 37 156 59 213c-41 20 -81 30 -115 30c-123 0 -214 -134 -214 -271c0 -80 40 -120 91 -120zM415 -98c-27 -54 -128 -88 -361 -72l5 45c216 -19 291 7 311 27
c30 30 4 105 4 234v15c-48 -74 -115 -132 -188 -132c-71 0 -120 55 -120 155c0 166 120 316 279 316c37 0 74 -9 112 -25c8 15 14 24 19 24c14 0 31 -9 31 -19c0 -23 -43 -153 -89 -254c-2 -24 -3 -49 -3 -66c0 -140 22 -204 0 -248z" />
    <glyph glyph-name="Gdotaccent" unicode="&#x120;" 
d="M378 720l-42 -1l31 129l50 1zM393 -110l-41 -1l27 120c-188 -63 -306 16 -306 210c0 214 135 414 294 414c103 0 137 -70 131 -219h-42c3 114 -10 179 -94 179c-138 0 -244 -185 -244 -364c0 -180 99 -241 270 -179l42 187l44 2z" />
    <glyph glyph-name="gdotaccent" unicode="&#x121;" 
d="M358 577l-42 -1l31 129l50 1zM200 61c61 0 127 53 179 148c13 73 37 156 59 213c-41 20 -81 30 -115 30c-123 0 -214 -134 -214 -271c0 -80 40 -120 91 -120zM415 -98c-27 -54 -128 -88 -361 -72l5 45c216 -19 291 7 311 27c30 30 4 105 4 234v15
c-48 -74 -115 -132 -188 -132c-71 0 -120 55 -120 155c0 166 120 316 279 316c37 0 74 -9 112 -25c8 15 14 24 19 24c14 0 31 -9 31 -19c0 -23 -43 -153 -89 -254c-2 -24 -3 -49 -3 -66c0 -140 22 -204 0 -248z" />
    <glyph glyph-name="Hbar" unicode="&#x126;" 
d="M438 323l25 131h-278l-25 -131h278zM375 0l56 287h-278l-56 -287h-45l88 453h-80l7 35h79l26 132h45l-26 -133h278l26 133h45l-26 -132h78l-6 -35h-78l-88 -453h-45z" />
    <glyph glyph-name="hbar" unicode="&#x127;" 
d="M510 31c-107 -66 -154 -43 -154 13c0 78 71 255 71 342c0 42 -19 64 -58 64c-53 0 -126 -43 -205 -133l-61 -317h-43l114 588h-79l6 33h79l15 77l44 4l-16 -81h143l-6 -33h-143l-44 -225c77 86 155 127 218 127c58 0 82 -38 82 -88c0 -98 -72 -279 -72 -342
c0 -33 17 -42 98 -4z" />
    <glyph glyph-name="Iacute" unicode="&#xcd;" 
d="M256 717c65 43 151 116 203 170l36 -38c-60 -51 -156 -113 -227 -153zM254 37h158l-8 -37h-358l8 37h155l106 546h-159l7 37h358l-7 -37h-154z" />
    <glyph glyph-name="iacute" unicode="&#xed;" 
d="M217 578c65 43 151 116 203 170l36 -38c-60 -51 -156 -113 -227 -153zM462 39c-225 -88 -308 -53 -274 77l83 322l-189 -36l-3 26l204 53l42 -2l-94 -358c-24 -94 14 -118 223 -55z" />
    <glyph glyph-name="Ibreve" unicode="&#x12c;" 
d="M536 864l26 -18c-66 -89 -131 -141 -198 -141c-63 0 -110 45 -148 145l36 17c36 -90 69 -124 121 -124c57 0 103 44 163 121zM254 37h158l-8 -37h-358l8 37h155l106 546h-159l7 37h358l-7 -37h-154z" />
    <glyph glyph-name="ibreve" unicode="&#x12d;" 
d="M497 725l26 -18c-66 -89 -131 -141 -198 -141c-63 0 -110 45 -148 145l36 17c36 -90 69 -124 121 -124c57 0 103 44 163 121zM462 39c-225 -88 -308 -53 -274 77l83 322l-189 -36l-3 26l204 53l42 -2l-94 -358c-24 -94 14 -118 223 -55z" />
    <glyph glyph-name="Icircumflex" unicode="&#xce;" 
d="M496 698l-106 128l-166 -124l-21 26l195 147h1l128 -151zM254 37h158l-8 -37h-358l8 37h155l106 546h-159l7 37h358l-7 -37h-154z" />
    <glyph glyph-name="icircumflex" unicode="&#xee;" 
d="M457 559l-106 128l-166 -124l-21 26l195 147h1l128 -151zM462 39c-225 -88 -308 -53 -274 77l83 322l-189 -36l-3 26l204 53l42 -2l-94 -358c-24 -94 14 -118 223 -55z" />
    <glyph glyph-name="Idieresis" unicode="&#xcf;" 
d="M480 709l-42 -2l30 130l50 1zM271 706l-42 -1l31 129l49 1zM254 37h158l-8 -37h-358l8 37h155l106 546h-159l7 37h358l-7 -37h-154z" />
    <glyph glyph-name="idieresis" unicode="&#xef;" 
d="M441 570l-42 -2l30 130l50 1zM232 567l-42 -1l31 129l49 1zM462 39c-225 -88 -308 -53 -274 77l83 322l-189 -36l-3 26l204 53l42 -2l-94 -358c-24 -94 14 -118 223 -55z" />
    <glyph glyph-name="Idotaccent" unicode="&#x130;" 
d="M375 707l-42 -1l31 129l50 1zM254 37h158l-8 -37h-358l8 37h155l106 546h-159l7 37h358l-7 -37h-154z" />
    <glyph glyph-name="dotlessi" unicode="&#x131;" 
d="M462 39c-225 -88 -308 -53 -274 77l83 322l-189 -36l-3 26l204 53l42 -2l-94 -358c-24 -94 14 -118 223 -55z" />
    <glyph glyph-name="Igrave" unicode="&#xcc;" 
d="M452 708l-15 -20c-55 40 -136 113 -184 170l39 36c40 -59 109 -140 160 -186zM254 37h158l-8 -37h-358l8 37h155l106 546h-159l7 37h358l-7 -37h-154z" />
    <glyph glyph-name="igrave" unicode="&#xec;" 
d="M412 569l-15 -20c-55 40 -136 113 -184 170l39 36c40 -59 109 -140 160 -186zM462 39c-225 -88 -308 -53 -274 77l83 322l-189 -36l-3 26l204 53l42 -2l-94 -358c-24 -94 14 -118 223 -55z" />
    <glyph glyph-name="Imacron" unicode="&#x12a;" 
d="M534 793l-7 -38h-313l8 38h312zM254 37h158l-8 -37h-358l8 37h155l106 546h-159l7 37h358l-7 -37h-154z" />
    <glyph glyph-name="imacron" unicode="&#x12b;" 
d="M495 654l-7 -38h-313l8 38h312zM462 39c-225 -88 -308 -53 -274 77l83 322l-189 -36l-3 26l204 53l42 -2l-94 -358c-24 -94 14 -118 223 -55z" />
    <glyph glyph-name="Iogonek" unicode="&#x12e;" 
d="M300 -166c-134 -72 -205 -35 -205 20c0 44 31 94 103 146h-152l8 37h155l106 546h-159l7 37h358l-7 -37h-154l-106 -546h158l-8 -37h-155c-78 -51 -111 -96 -111 -135c0 -35 44 -54 154 -8z" />
    <glyph glyph-name="iogonek" unicode="&#x12f;" 
d="M344 568l-42 -3l30 130l50 2zM360 -166c-134 -72 -205 -35 -205 20c0 43 31 88 126 137c-92 -6 -116 38 -93 125l83 322l-189 -36l-3 26l204 53l42 -2l-94 -358c-24 -94 14 -118 223 -55l8 -27c-225 -82 -264 -135 -264 -174c0 -35 44 -54 154 -8z" />
    <glyph glyph-name="Kcommaaccent" unicode="&#x136;" 
d="M420 -4l-218 317l319 307h52l-317 -308l213 -309zM186 620h45l-121 -620h-45zM179 -262c56 74 56 129 43 185l61 3c4 -59 -20 -128 -87 -198z" />
    <glyph glyph-name="kcommaaccent" unicode="&#x137;" 
d="M430 -4l-208 205c183 84 236 152 236 199c0 31 -22 49 -56 49c-55 0 -140 -42 -229 -134l-61 -315h-43l135 698l44 4l-66 -342c83 86 172 130 236 130c55 0 86 -31 86 -76c0 -66 -63 -140 -225 -214l202 -196zM167 -262c56 74 56 129 43 185l61 3
c4 -59 -20 -128 -87 -198z" />
    <glyph glyph-name="Lacute" unicode="&#x139;" 
d="M290 717c65 43 151 116 203 170l36 -38c-60 -51 -156 -113 -227 -153zM442 0h-370l120 620h45l-112 -580h327z" />
    <glyph glyph-name="lacute" unicode="&#x13a;" 
d="M395 802c65 43 151 116 203 170l36 -38c-60 -51 -156 -113 -227 -153zM448 66c-181 -112 -298 -100 -310 64c-17 -11 -37 -25 -49 -33l-15 25c16 11 44 30 63 43c2 268 177 540 306 540c54 0 84 -36 84 -95c0 -112 -89 -270 -347 -453c5 -153 93 -157 255 -65zM430 661
c-98 0 -240 -234 -249 -467c228 168 303 307 303 400c0 43 -21 67 -54 67z" />
    <glyph glyph-name="Lcaron" unicode="&#x13d;" 
d="M487 695l58 4c2 -74 -18 -157 -98 -249l-20 12c69 95 68 161 60 233zM442 0h-370l120 620h45l-112 -580h327z" />
    <glyph glyph-name="lcaron" unicode="&#x13e;" 
d="M634 797l58 4c2 -74 -18 -157 -98 -249l-20 12c69 95 68 161 60 233zM448 66c-181 -112 -298 -100 -310 64c-17 -11 -37 -25 -49 -33l-15 25c16 11 44 30 63 43c2 268 177 540 306 540c54 0 84 -36 84 -95c0 -112 -89 -270 -347 -453c5 -153 93 -157 255 -65zM430 661
c-98 0 -240 -234 -249 -467c228 168 303 307 303 400c0 43 -21 67 -54 67z" />
    <glyph glyph-name="Lcommaaccent" unicode="&#x13b;" 
d="M442 0h-370l120 620h45l-112 -580h327zM171 -258c56 74 56 129 43 185l61 3c4 -59 -20 -128 -87 -198z" />
    <glyph glyph-name="lcommaaccent" unicode="&#x13c;" 
d="M448 66c-181 -112 -298 -100 -310 64c-17 -11 -37 -25 -49 -33l-15 25c16 11 44 30 63 43c2 268 177 540 306 540c54 0 84 -36 84 -95c0 -112 -89 -270 -347 -453c5 -153 93 -157 255 -65zM430 661c-98 0 -240 -234 -249 -467c228 168 303 307 303 400
c0 43 -21 67 -54 67zM202 -265c56 74 56 129 43 185l61 3c4 -59 -20 -128 -87 -198z" />
    <glyph glyph-name="Ldot" unicode="&#x13f;" 
d="M442 0h-370l120 620h45l-112 -580h327zM455 272h-69l20 85h69z" />
    <glyph glyph-name="ldot" unicode="&#x140;" 
d="M448 66c-181 -112 -298 -100 -310 64c-17 -11 -37 -25 -49 -33l-15 25c16 11 44 30 63 43c2 268 177 540 306 540c54 0 84 -36 84 -95c0 -112 -89 -270 -347 -453c5 -153 93 -157 255 -65zM430 661c-98 0 -240 -234 -249 -467c228 168 303 307 303 400
c0 43 -21 67 -54 67zM578 272h-69l20 85h69z" />
    <glyph glyph-name="Lslash" unicode="&#x141;" 
d="M452 0h-370l61 314l-87 -41l-2 34l96 46l52 267h45l-47 -243l182 87l3 -34l-192 -92l-58 -298h327z" />
    <glyph glyph-name="lslash" unicode="&#x142;" 
d="M168 723c0 90 227 147 497 69l-15 -37c-260 76 -450 28 -450 -24c0 -18 17 -35 55 -63l-24 -30c-39 26 -63 54 -63 85zM448 66c-181 -112 -298 -100 -310 64c-17 -11 -37 -25 -49 -33l-15 25c16 11 44 30 63 43c2 268 177 540 306 540c54 0 84 -36 84 -95
c0 -112 -89 -270 -347 -453c5 -153 93 -157 255 -65zM430 661c-98 0 -240 -234 -249 -467c228 168 303 307 303 400c0 43 -21 67 -54 67z" />
    <glyph glyph-name="Nacute" unicode="&#x143;" 
d="M268 718c65 43 151 116 203 170l36 -38c-60 -51 -156 -113 -227 -153zM368 0l-161 565h-5l-108 -565h-42l119 619l61 2l156 -551h5l106 550h42l-120 -620h-53z" />
    <glyph glyph-name="nacute" unicode="&#x144;" 
d="M228 587c65 43 151 116 203 170l36 -38c-60 -51 -156 -113 -227 -153zM510 31c-107 -66 -154 -43 -154 13c0 78 71 253 71 341c0 43 -19 65 -58 65c-52 0 -124 -39 -202 -121c-13 -71 -42 -216 -64 -329h-43c45 229 66 336 89 479l42 3c-5 -29 -11 -75 -17 -111
c76 80 154 119 217 119c58 0 82 -38 82 -88c0 -98 -72 -279 -72 -342c0 -33 17 -42 98 -4z" />
    <glyph glyph-name="Ncaron" unicode="&#x147;" 
d="M367 696h-1l-129 151l32 26l105 -128l166 124l22 -26zM368 0l-161 565h-5l-108 -565h-42l119 619l61 2l156 -551h5l106 550h42l-120 -620h-53z" />
    <glyph glyph-name="ncaron" unicode="&#x148;" 
d="M327 565h-1l-129 151l32 26l105 -128l166 124l22 -26zM510 31c-107 -66 -154 -43 -154 13c0 78 71 253 71 341c0 43 -19 65 -58 65c-52 0 -124 -39 -202 -121c-13 -71 -42 -216 -64 -329h-43c45 229 66 336 89 479l42 3c-5 -29 -11 -75 -17 -111c76 80 154 119 217 119
c58 0 82 -38 82 -88c0 -98 -72 -279 -72 -342c0 -33 17 -42 98 -4z" />
    <glyph glyph-name="Ncommaaccent" unicode="&#x145;" 
d="M368 0l-161 565h-5l-108 -565h-42l119 619l61 2l156 -551h5l106 550h42l-120 -620h-53zM149 -258c56 74 56 129 43 185l61 3c4 -59 -20 -128 -87 -198z" />
    <glyph glyph-name="ncommaaccent" unicode="&#x146;" 
d="M510 31c-107 -66 -154 -43 -154 13c0 78 71 253 71 341c0 43 -19 65 -58 65c-52 0 -124 -39 -202 -121c-13 -71 -42 -216 -64 -329h-43c45 229 66 336 89 479l42 3c-5 -29 -11 -75 -17 -111c76 80 154 119 217 119c58 0 82 -38 82 -88c0 -98 -72 -279 -72 -342
c0 -33 17 -42 98 -4zM145 -267c56 74 56 129 43 185l61 3c4 -59 -20 -128 -87 -198z" />
    <glyph glyph-name="Ntilde" unicode="&#xd1;" 
d="M458 744c33 0 68 51 106 114l25 -15c-50 -87 -93 -135 -141 -135c-68 0 -79 115 -130 115c-33 0 -68 -45 -106 -108l-25 15c50 87 94 129 141 129c68 0 79 -115 130 -115zM368 0l-161 565h-5l-108 -565h-42l119 619l61 2l156 -551h5l106 550h42l-120 -620h-53z" />
    <glyph glyph-name="ntilde" unicode="&#xf1;" 
d="M418 613c33 0 68 51 106 114l25 -15c-50 -87 -93 -135 -141 -135c-68 0 -79 115 -130 115c-33 0 -68 -45 -106 -108l-25 15c50 87 94 129 141 129c68 0 79 -115 130 -115zM510 31c-107 -66 -154 -43 -154 13c0 78 71 253 71 341c0 43 -19 65 -58 65
c-52 0 -124 -39 -202 -121c-13 -71 -42 -216 -64 -329h-43c45 229 66 336 89 479l42 3c-5 -29 -11 -75 -17 -111c76 80 154 119 217 119c58 0 82 -38 82 -88c0 -98 -72 -279 -72 -342c0 -33 17 -42 98 -4z" />
    <glyph glyph-name="Oacute" unicode="&#xd3;" 
d="M271 730c65 43 151 116 203 170l36 -38c-60 -51 -156 -113 -227 -153zM355 632c101 0 167 -80 167 -230c0 -203 -120 -414 -285 -414c-101 0 -167 80 -167 230c0 203 120 414 285 414zM246 28c134 0 231 186 231 370c0 129 -52 194 -131 194c-134 0 -231 -186 -231 -370
c0 -129 52 -194 131 -194z" />
    <glyph glyph-name="oacute" unicode="&#xf3;" 
d="M235 588c65 43 151 116 203 170l36 -38c-60 -51 -156 -113 -227 -153zM63 183c0 172 114 308 254 308c101 0 169 -67 169 -194c0 -175 -115 -307 -254 -307c-102 0 -169 65 -169 193zM442 289c0 102 -48 164 -135 164c-118 0 -200 -119 -200 -262
c0 -103 48 -163 135 -163c117 0 200 116 200 261z" />
    <glyph glyph-name="Obreve" unicode="&#x14e;" 
d="M551 877l26 -18c-66 -89 -131 -141 -198 -141c-63 0 -110 45 -148 145l36 17c36 -90 69 -124 121 -124c57 0 103 44 163 121zM355 632c101 0 167 -80 167 -230c0 -203 -120 -414 -285 -414c-101 0 -167 80 -167 230c0 203 120 414 285 414zM246 28c134 0 231 186 231 370
c0 129 -52 194 -131 194c-134 0 -231 -186 -231 -370c0 -129 52 -194 131 -194z" />
    <glyph glyph-name="obreve" unicode="&#x14f;" 
d="M515 735l26 -18c-66 -89 -131 -141 -198 -141c-63 0 -110 45 -148 145l36 17c36 -90 69 -124 121 -124c57 0 103 44 163 121zM63 183c0 172 114 308 254 308c101 0 169 -67 169 -194c0 -175 -115 -307 -254 -307c-102 0 -169 65 -169 193zM442 289
c0 102 -48 164 -135 164c-118 0 -200 -119 -200 -262c0 -103 48 -163 135 -163c117 0 200 116 200 261z" />
    <glyph glyph-name="Ocircumflex" unicode="&#xd4;" 
d="M511 711l-106 128l-166 -124l-21 26l195 147h1l128 -151zM355 632c101 0 167 -80 167 -230c0 -203 -120 -414 -285 -414c-101 0 -167 80 -167 230c0 203 120 414 285 414zM246 28c134 0 231 186 231 370c0 129 -52 194 -131 194c-134 0 -231 -186 -231 -370
c0 -129 52 -194 131 -194z" />
    <glyph glyph-name="ocircumflex" unicode="&#xf4;" 
d="M475 569l-106 128l-166 -124l-21 26l195 147h1l128 -151zM63 183c0 172 114 308 254 308c101 0 169 -67 169 -194c0 -175 -115 -307 -254 -307c-102 0 -169 65 -169 193zM442 289c0 102 -48 164 -135 164c-118 0 -200 -119 -200 -262c0 -103 48 -163 135 -163
c117 0 200 116 200 261z" />
    <glyph glyph-name="Odieresis" unicode="&#xd6;" 
d="M495 722l-42 -2l30 130l50 1zM286 719l-42 -1l31 129l49 1zM355 632c101 0 167 -80 167 -230c0 -203 -120 -414 -285 -414c-101 0 -167 80 -167 230c0 203 120 414 285 414zM246 28c134 0 231 186 231 370c0 129 -52 194 -131 194c-134 0 -231 -186 -231 -370
c0 -129 52 -194 131 -194z" />
    <glyph glyph-name="odieresis" unicode="&#xf6;" 
d="M459 580l-42 -2l30 130l50 1zM250 577l-42 -1l31 129l49 1zM63 183c0 172 114 308 254 308c101 0 169 -67 169 -194c0 -175 -115 -307 -254 -307c-102 0 -169 65 -169 193zM442 289c0 102 -48 164 -135 164c-118 0 -200 -119 -200 -262c0 -103 48 -163 135 -163
c117 0 200 116 200 261z" />
    <glyph glyph-name="Ograve" unicode="&#xd2;" 
d="M467 721l-15 -20c-55 40 -136 113 -184 170l39 36c40 -59 109 -140 160 -186zM355 632c101 0 167 -80 167 -230c0 -203 -120 -414 -285 -414c-101 0 -167 80 -167 230c0 203 120 414 285 414zM246 28c134 0 231 186 231 370c0 129 -52 194 -131 194
c-134 0 -231 -186 -231 -370c0 -129 52 -194 131 -194z" />
    <glyph glyph-name="ograve" unicode="&#xf2;" 
d="M431 579l-15 -20c-55 40 -136 113 -184 170l39 36c40 -59 109 -140 160 -186zM63 183c0 172 114 308 254 308c101 0 169 -67 169 -194c0 -175 -115 -307 -254 -307c-102 0 -169 65 -169 193zM442 289c0 102 -48 164 -135 164c-118 0 -200 -119 -200 -262
c0 -103 48 -163 135 -163c117 0 200 116 200 261z" />
    <glyph glyph-name="Ohungarumlaut" unicode="&#x150;" 
d="M253 709l-19 16c49 53 107 135 141 190l47 -26c-41 -53 -111 -128 -169 -180zM459 709l-20 16c50 53 106 132 140 188l48 -24c-40 -54 -110 -129 -168 -180zM355 632c101 0 167 -80 167 -230c0 -203 -120 -414 -285 -414c-101 0 -167 80 -167 230c0 203 120 414 285 414z
M246 28c134 0 231 186 231 370c0 129 -52 194 -131 194c-134 0 -231 -186 -231 -370c0 -129 52 -194 131 -194z" />
    <glyph glyph-name="ohungarumlaut" unicode="&#x151;" 
d="M217 567l-19 16c49 53 107 135 141 190l47 -26c-41 -53 -111 -128 -169 -180zM423 567l-20 16c50 53 106 132 140 188l48 -24c-40 -54 -110 -129 -168 -180zM63 183c0 172 114 308 254 308c101 0 169 -67 169 -194c0 -175 -115 -307 -254 -307c-102 0 -169 65 -169 193z
M442 289c0 102 -48 164 -135 164c-118 0 -200 -119 -200 -262c0 -103 48 -163 135 -163c117 0 200 116 200 261z" />
    <glyph glyph-name="Omacron" unicode="&#x14c;" 
d="M549 806l-7 -38h-313l8 38h312zM355 632c101 0 167 -80 167 -230c0 -203 -120 -414 -285 -414c-101 0 -167 80 -167 230c0 203 120 414 285 414zM246 28c134 0 231 186 231 370c0 129 -52 194 -131 194c-134 0 -231 -186 -231 -370c0 -129 52 -194 131 -194z" />
    <glyph glyph-name="omacron" unicode="&#x14d;" 
d="M513 664l-7 -38h-313l8 38h312zM63 183c0 172 114 308 254 308c101 0 169 -67 169 -194c0 -175 -115 -307 -254 -307c-102 0 -169 65 -169 193zM442 289c0 102 -48 164 -135 164c-118 0 -200 -119 -200 -262c0 -103 48 -163 135 -163c117 0 200 116 200 261z" />
    <glyph glyph-name="Oslash" unicode="&#xd8;" 
d="M116 231c0 -43 5 -80 15 -109l313 414c-23 38 -58 57 -101 57c-132 0 -227 -183 -227 -362zM249 27c132 0 227 183 227 363c0 44 -5 80 -15 110l-314 -414c22 -39 57 -59 102 -59zM240 -13c-51 0 -93 20 -123 60l-57 -76l-29 21l67 88c-17 37 -27 85 -27 144
c0 200 118 409 281 409c51 0 93 -20 122 -60l60 76l28 -21l-68 -87c17 -37 27 -86 27 -145c0 -199 -116 -409 -281 -409z" />
    <glyph glyph-name="oslash" unicode="&#xf8;" 
d="M107 191c0 -38 6 -69 19 -95l278 316c-22 27 -55 41 -97 41c-118 0 -200 -119 -200 -262zM242 28c117 0 200 116 200 261c0 36 -6 67 -17 92l-278 -316c22 -24 54 -37 95 -37zM232 -10c-47 0 -87 14 -116 42l-55 -62l-29 22l61 68c-19 30 -30 72 -30 123
c0 172 114 308 254 308c48 0 89 -15 118 -45l54 61l29 -22l-61 -68c19 -30 29 -71 29 -120c0 -175 -115 -307 -254 -307z" />
    <glyph glyph-name="Oslashacute" unicode="&#x1fe;" 
d="M271 730c65 43 151 116 203 170l36 -38c-60 -51 -156 -113 -227 -153zM116 231c0 -43 5 -80 15 -109l313 414c-23 38 -58 57 -101 57c-132 0 -227 -183 -227 -362zM249 27c132 0 227 183 227 363c0 44 -5 80 -15 110l-314 -414c22 -39 57 -59 102 -59zM240 -13
c-51 0 -93 20 -123 60l-57 -76l-29 21l67 88c-17 37 -27 85 -27 144c0 200 118 409 281 409c51 0 93 -20 122 -60l60 76l28 -21l-68 -87c17 -37 27 -86 27 -145c0 -199 -116 -409 -281 -409z" />
    <glyph glyph-name="oslashacute" unicode="&#x1ff;" 
d="M235 588c65 43 151 116 203 170l36 -38c-60 -51 -156 -113 -227 -153zM107 191c0 -38 6 -69 19 -95l278 316c-22 27 -55 41 -97 41c-118 0 -200 -119 -200 -262zM242 28c117 0 200 116 200 261c0 36 -6 67 -17 92l-278 -316c22 -24 54 -37 95 -37zM232 -10
c-47 0 -87 14 -116 42l-55 -62l-29 22l61 68c-19 30 -30 72 -30 123c0 172 114 308 254 308c48 0 89 -15 118 -45l54 61l29 -22l-61 -68c19 -30 29 -71 29 -120c0 -175 -115 -307 -254 -307z" />
    <glyph glyph-name="Otilde" unicode="&#xd5;" 
d="M461 756c33 0 68 51 106 114l25 -15c-50 -87 -93 -135 -141 -135c-68 0 -79 115 -130 115c-33 0 -68 -45 -106 -108l-25 15c50 87 94 129 141 129c68 0 79 -115 130 -115zM355 632c101 0 167 -80 167 -230c0 -203 -120 -414 -285 -414c-101 0 -167 80 -167 230
c0 203 120 414 285 414zM246 28c134 0 231 186 231 370c0 129 -52 194 -131 194c-134 0 -231 -186 -231 -370c0 -129 52 -194 131 -194z" />
    <glyph glyph-name="otilde" unicode="&#xf5;" 
d="M425 614c33 0 68 51 106 114l25 -15c-50 -87 -93 -135 -141 -135c-68 0 -79 115 -130 115c-33 0 -68 -45 -106 -108l-25 15c50 87 94 129 141 129c68 0 79 -115 130 -115zM63 183c0 172 114 308 254 308c101 0 169 -67 169 -194c0 -175 -115 -307 -254 -307
c-102 0 -169 65 -169 193zM442 289c0 102 -48 164 -135 164c-118 0 -200 -119 -200 -262c0 -103 48 -163 135 -163c117 0 200 116 200 261z" />
    <glyph glyph-name="Racute" unicode="&#x154;" 
d="M255 723c65 43 151 116 203 170l36 -38c-60 -51 -156 -113 -227 -153zM436 -4l-198 280l1 3c159 69 230 121 230 201c0 77 -81 121 -250 103l-113 -583h-45l120 619c237 30 333 -36 333 -131c0 -93 -76 -156 -218 -219l189 -265z" />
    <glyph glyph-name="racute" unicode="&#x155;" 
d="M270 597c65 43 151 116 203 170l36 -38c-60 -51 -156 -113 -227 -153zM508 25c-196 -84 -268 -19 -88 408c-72 -23 -145 -37 -197 -35c-31 -71 -90 -162 -147 -228l-21 17c62 77 106 145 133 216c-22 6 -35 17 -35 35c0 30 37 75 70 75c15 0 24 -10 24 -30
c0 -13 -4 -30 -10 -49c59 4 139 21 220 55l20 -16c-178 -441 -141 -483 24 -422z" />
    <glyph glyph-name="Rcaron" unicode="&#x158;" 
d="M354 701h-1l-129 151l32 26l105 -128l166 124l22 -26zM436 -4l-198 280l1 3c159 69 230 121 230 201c0 77 -81 121 -250 103l-113 -583h-45l120 619c237 30 333 -36 333 -131c0 -93 -76 -156 -218 -219l189 -265z" />
    <glyph glyph-name="rcaron" unicode="&#x159;" 
d="M369 575h-1l-129 151l32 26l105 -128l166 124l22 -26zM508 25c-196 -84 -268 -19 -88 408c-72 -23 -145 -37 -197 -35c-31 -71 -90 -162 -147 -228l-21 17c62 77 106 145 133 216c-22 6 -35 17 -35 35c0 30 37 75 70 75c15 0 24 -10 24 -30c0 -13 -4 -30 -10 -49
c59 4 139 21 220 55l20 -16c-178 -441 -141 -483 24 -422z" />
    <glyph glyph-name="Rcommaaccent" unicode="&#x156;" 
d="M436 -4l-198 280l1 3c159 69 230 121 230 201c0 77 -81 121 -250 103l-113 -583h-45l120 619c237 30 333 -36 333 -131c0 -93 -76 -156 -218 -219l189 -265zM162 -262c56 74 56 129 43 185l61 3c4 -59 -20 -128 -87 -198z" />
    <glyph glyph-name="rcommaaccent" unicode="&#x157;" 
d="M508 25c-196 -84 -268 -19 -88 408c-72 -23 -145 -37 -197 -35c-31 -71 -90 -162 -147 -228l-21 17c62 77 106 145 133 216c-22 6 -35 17 -35 35c0 30 37 75 70 75c15 0 24 -10 24 -30c0 -13 -4 -30 -10 -49c59 4 139 21 220 55l20 -16c-178 -441 -141 -483 24 -422z
M129 -240c56 74 56 129 43 185l61 3c4 -59 -20 -128 -87 -198z" />
    <glyph glyph-name="Sacute" unicode="&#x15a;" 
d="M260 728c65 43 151 116 203 170l36 -38c-60 -51 -156 -113 -227 -153zM501 466l-43 -8c-12 93 -55 134 -133 134c-83 0 -142 -61 -142 -129c0 -130 267 -187 267 -326c0 -99 -116 -188 -420 -120l10 46c276 -68 366 -7 366 66c0 118 -268 182 -268 327
c0 90 86 175 201 175c96 0 148 -58 162 -165z" />
    <glyph glyph-name="sacute" unicode="&#x15b;" 
d="M247 624c65 43 151 116 203 170l36 -38c-60 -51 -156 -113 -227 -153zM451 114c0 -72 -67 -140 -327 -119l2 42c239 -24 282 19 282 72c0 67 -96 147 -131 240c-43 -44 -102 -95 -183 -150l-15 22c98 73 149 119 188 168c-1 8 -2 16 -2 24c0 49 41 114 77 114
c38 0 40 -54 -30 -139c20 -91 139 -192 139 -274z" />
    <glyph glyph-name="Scaron" unicode="&#x160;" 
d="M359 706h-1l-129 151l32 26l105 -128l166 124l22 -26zM501 466l-43 -8c-12 93 -55 134 -133 134c-83 0 -142 -61 -142 -129c0 -130 267 -187 267 -326c0 -99 -116 -188 -420 -120l10 46c276 -68 366 -7 366 66c0 118 -268 182 -268 327c0 90 86 175 201 175
c96 0 148 -58 162 -165z" />
    <glyph glyph-name="scaron" unicode="&#x161;" 
d="M346 602h-1l-129 151l32 26l105 -128l166 124l22 -26zM451 114c0 -72 -67 -140 -327 -119l2 42c239 -24 282 19 282 72c0 67 -96 147 -131 240c-43 -44 -102 -95 -183 -150l-15 22c98 73 149 119 188 168c-1 8 -2 16 -2 24c0 49 41 114 77 114c38 0 40 -54 -30 -139
c20 -91 139 -192 139 -274z" />
    <glyph glyph-name="Scedilla" unicode="&#x15e;" 
d="M268 -179c7 102 -22 144 -63 144c-39 0 -73 -42 -107 -114l-26 9c31 75 66 119 105 135c-43 3 -92 10 -147 22l10 46c276 -68 366 -7 366 66c0 118 -268 182 -268 327c0 90 86 175 201 175c96 0 148 -58 162 -165l-43 -8c-12 93 -55 134 -133 134
c-83 0 -142 -61 -142 -129c0 -130 267 -187 267 -326c0 -71 -59 -136 -204 -143c43 -19 70 -74 64 -172z" />
    <glyph glyph-name="scedilla" unicode="&#x15f;" 
d="M286 -181c7 102 -22 144 -63 144c-39 0 -73 -42 -107 -114l-26 9c31 73 65 117 102 133c-21 1 -44 2 -68 4l2 42c239 -24 282 19 282 72c0 67 -96 147 -131 240c-43 -44 -102 -95 -183 -150l-15 22c98 73 149 119 188 168c-1 8 -2 16 -2 24c0 49 41 114 77 114
c38 0 40 -54 -30 -139c20 -91 139 -192 139 -274c0 -57 -42 -112 -189 -121c44 -18 72 -73 66 -173z" />
    <glyph glyph-name="Scommaaccent" unicode="&#x218;" 
d="M501 466l-43 -8c-12 93 -55 134 -133 134c-83 0 -142 -61 -142 -129c0 -130 267 -187 267 -326c0 -99 -116 -188 -420 -120l10 46c276 -68 366 -7 366 66c0 118 -268 182 -268 327c0 90 86 175 201 175c96 0 148 -58 162 -165zM122 -265c56 74 56 129 43 185l61 3
c4 -59 -20 -128 -87 -198z" />
    <glyph glyph-name="scommaaccent" unicode="&#x219;" 
d="M451 114c0 -72 -67 -140 -327 -119l2 42c239 -24 282 19 282 72c0 67 -96 147 -131 240c-43 -44 -102 -95 -183 -150l-15 22c98 73 149 119 188 168c-1 8 -2 16 -2 24c0 49 41 114 77 114c38 0 40 -54 -30 -139c20 -91 139 -192 139 -274zM136 -267c56 74 56 129 43 185
l61 3c4 -59 -20 -128 -87 -198z" />
    <glyph glyph-name="Tcaron" unicode="&#x164;" 
d="M359 695h-1l-129 151l32 26l105 -128l166 124l22 -26zM364 580l-113 -580h-45l113 580h-208l7 40h461l-7 -40h-208z" />
    <glyph glyph-name="tcaron" unicode="&#x165;" 
d="M440 825l58 4c2 -74 -18 -157 -98 -249l-20 12c69 95 68 161 60 233zM452 51c-249 -123 -318 -47 -283 106l65 287h-94l10 35h67l65 138l35 2l-32 -140h199l-7 -35h-200l-65 -285c-28 -126 9 -173 231 -82z" />
    <glyph glyph-name="Tcommaaccent" unicode="&#x162;" 
d="M364 580l-113 -580h-45l113 580h-208l7 40h461l-7 -40h-208zM141 -258c56 74 56 129 43 185l61 3c4 -59 -20 -128 -87 -198z" />
    <glyph glyph-name="tcommaaccent" unicode="&#x163;" 
d="M452 51c-249 -123 -318 -47 -283 106l65 287h-94l10 35h67l65 138l35 2l-32 -140h199l-7 -35h-200l-65 -285c-28 -126 9 -173 231 -82zM159 -268c56 74 56 129 43 185l61 3c4 -59 -20 -128 -87 -198z" />
    <glyph glyph-name="Uacute" unicode="&#xda;" 
d="M267 717c65 43 151 116 203 170l36 -38c-60 -51 -156 -113 -227 -153zM133 210c-23 -117 12 -183 117 -183c88 0 143 54 165 168l83 425h45l-83 -425c-26 -134 -103 -210 -215 -210c-125 0 -185 81 -159 216l82 419h45z" />
    <glyph glyph-name="uacute" unicode="&#xfa;" 
d="M245 579c65 43 151 116 203 170l36 -38c-60 -51 -156 -113 -227 -153zM373 116l1 3c-75 -84 -138 -129 -199 -129c-71 0 -108 57 -78 184l38 165l-35 21l65 119l45 3l-70 -305c-25 -107 2 -146 52 -146c54 0 110 44 190 132l63 317h42l-71 -361c-17 -86 -11 -111 91 -63
l8 -24c-135 -77 -166 -35 -142 84z" />
    <glyph glyph-name="Ubreve" unicode="&#x16c;" 
d="M547 864l26 -18c-66 -89 -131 -141 -198 -141c-63 0 -110 45 -148 145l36 17c36 -90 69 -124 121 -124c57 0 103 44 163 121zM133 210c-23 -117 12 -183 117 -183c88 0 143 54 165 168l83 425h45l-83 -425c-26 -134 -103 -210 -215 -210c-125 0 -185 81 -159 216l82 419
h45z" />
    <glyph glyph-name="ubreve" unicode="&#x16d;" 
d="M525 726l26 -18c-66 -89 -131 -141 -198 -141c-63 0 -110 45 -148 145l36 17c36 -90 69 -124 121 -124c57 0 103 44 163 121zM373 116l1 3c-75 -84 -138 -129 -199 -129c-71 0 -108 57 -78 184l38 165l-35 21l65 119l45 3l-70 -305c-25 -107 2 -146 52 -146
c54 0 110 44 190 132l63 317h42l-71 -361c-17 -86 -11 -111 91 -63l8 -24c-135 -77 -166 -35 -142 84z" />
    <glyph glyph-name="Ucircumflex" unicode="&#xdb;" 
d="M507 698l-106 128l-166 -124l-21 26l195 147h1l128 -151zM133 210c-23 -117 12 -183 117 -183c88 0 143 54 165 168l83 425h45l-83 -425c-26 -134 -103 -210 -215 -210c-125 0 -185 81 -159 216l82 419h45z" />
    <glyph glyph-name="ucircumflex" unicode="&#xfb;" 
d="M485 560l-106 128l-166 -124l-21 26l195 147h1l128 -151zM373 116l1 3c-75 -84 -138 -129 -199 -129c-71 0 -108 57 -78 184l38 165l-35 21l65 119l45 3l-70 -305c-25 -107 2 -146 52 -146c54 0 110 44 190 132l63 317h42l-71 -361c-17 -86 -11 -111 91 -63l8 -24
c-135 -77 -166 -35 -142 84z" />
    <glyph glyph-name="Udieresis" unicode="&#xdc;" 
d="M491 709l-42 -2l30 130l50 1zM282 706l-42 -1l31 129l49 1zM133 210c-23 -117 12 -183 117 -183c88 0 143 54 165 168l83 425h45l-83 -425c-26 -134 -103 -210 -215 -210c-125 0 -185 81 -159 216l82 419h45z" />
    <glyph glyph-name="udieresis" unicode="&#xfc;" 
d="M469 571l-42 -2l30 130l50 1zM260 568l-42 -1l31 129l49 1zM373 116l1 3c-75 -84 -138 -129 -199 -129c-71 0 -108 57 -78 184l38 165l-35 21l65 119l45 3l-70 -305c-25 -107 2 -146 52 -146c54 0 110 44 190 132l63 317h42l-71 -361c-17 -86 -11 -111 91 -63l8 -24
c-135 -77 -166 -35 -142 84z" />
    <glyph glyph-name="Ugrave" unicode="&#xd9;" 
d="M463 708l-15 -20c-55 40 -136 113 -184 170l39 36c40 -59 109 -140 160 -186zM133 210c-23 -117 12 -183 117 -183c88 0 143 54 165 168l83 425h45l-83 -425c-26 -134 -103 -210 -215 -210c-125 0 -185 81 -159 216l82 419h45z" />
    <glyph glyph-name="ugrave" unicode="&#xf9;" 
d="M441 570l-15 -20c-55 40 -136 113 -184 170l39 36c40 -59 109 -140 160 -186zM373 116l1 3c-75 -84 -138 -129 -199 -129c-71 0 -108 57 -78 184l38 165l-35 21l65 119l45 3l-70 -305c-25 -107 2 -146 52 -146c54 0 110 44 190 132l63 317h42l-71 -361
c-17 -86 -11 -111 91 -63l8 -24c-135 -77 -166 -35 -142 84z" />
    <glyph glyph-name="Uhungarumlaut" unicode="&#x170;" 
d="M249 696l-19 16c49 53 107 135 141 190l47 -26c-41 -53 -111 -128 -169 -180zM455 696l-20 16c50 53 106 132 140 188l48 -24c-40 -54 -110 -129 -168 -180zM133 210c-23 -117 12 -183 117 -183c88 0 143 54 165 168l83 425h45l-83 -425c-26 -134 -103 -210 -215 -210
c-125 0 -185 81 -159 216l82 419h45z" />
    <glyph glyph-name="uhungarumlaut" unicode="&#x171;" 
d="M227 558l-19 16c49 53 107 135 141 190l47 -26c-41 -53 -111 -128 -169 -180zM433 558l-20 16c50 53 106 132 140 188l48 -24c-40 -54 -110 -129 -168 -180zM373 116l1 3c-75 -84 -138 -129 -199 -129c-71 0 -108 57 -78 184l38 165l-35 21l65 119l45 3l-70 -305
c-25 -107 2 -146 52 -146c54 0 110 44 190 132l63 317h42l-71 -361c-17 -86 -11 -111 91 -63l8 -24c-135 -77 -166 -35 -142 84z" />
    <glyph glyph-name="Umacron" unicode="&#x16a;" 
d="M545 793l-7 -38h-313l8 38h312zM133 210c-23 -117 12 -183 117 -183c88 0 143 54 165 168l83 425h45l-83 -425c-26 -134 -103 -210 -215 -210c-125 0 -185 81 -159 216l82 419h45z" />
    <glyph glyph-name="umacron" unicode="&#x16b;" 
d="M523 655l-7 -38h-313l8 38h312zM373 116l1 3c-75 -84 -138 -129 -199 -129c-71 0 -108 57 -78 184l38 165l-35 21l65 119l45 3l-70 -305c-25 -107 2 -146 52 -146c54 0 110 44 190 132l63 317h42l-71 -361c-17 -86 -11 -111 91 -63l8 -24c-135 -77 -166 -35 -142 84z" />
    <glyph glyph-name="Uogonek" unicode="&#x172;" 
d="M320 -166c-134 -72 -205 -35 -205 20c0 40 38 84 126 131c-122 2 -181 83 -155 216l82 419h45l-80 -410c-23 -117 12 -183 117 -183c88 0 143 54 165 168l83 425h45l-83 -425c-19 -99 -67 -163 -135 -195c-118 -56 -167 -97 -167 -135c0 -35 44 -54 154 -8z" />
    <glyph glyph-name="uogonek" unicode="&#x173;" 
d="M499 -166c-134 -72 -205 -35 -205 20c0 43 32 90 107 140c-37 6 -43 50 -28 122l1 3c-75 -84 -138 -129 -199 -129c-71 0 -108 57 -78 184l38 165l-35 21l65 119l45 3l-70 -305c-25 -107 2 -146 52 -146c54 0 110 44 190 132l63 317h42l-71 -361c-17 -86 -11 -111 91 -63
l8 -24c-126 -63 -178 -121 -178 -167c0 -35 44 -54 154 -8z" />
    <glyph glyph-name="Uring" unicode="&#x16e;" 
d="M392 889c72 0 124 -42 124 -98c0 -61 -57 -109 -135 -109c-72 0 -124 42 -124 98c0 61 57 109 135 109zM388 858c-54 0 -95 -33 -95 -74c0 -40 38 -71 92 -71c55 0 96 33 96 74c0 39 -39 71 -93 71zM133 210c-23 -117 12 -183 117 -183c88 0 143 54 165 168l83 425h45
l-83 -425c-26 -134 -103 -210 -215 -210c-125 0 -185 81 -159 216l82 419h45z" />
    <glyph glyph-name="uring" unicode="&#x16f;" 
d="M370 751c72 0 124 -42 124 -98c0 -61 -57 -109 -135 -109c-72 0 -124 42 -124 98c0 61 57 109 135 109zM366 720c-54 0 -95 -33 -95 -74c0 -40 38 -71 92 -71c55 0 96 33 96 74c0 39 -39 71 -93 71zM373 116l1 3c-75 -84 -138 -129 -199 -129c-71 0 -108 57 -78 184
l38 165l-35 21l65 119l45 3l-70 -305c-25 -107 2 -146 52 -146c54 0 110 44 190 132l63 317h42l-71 -361c-17 -86 -11 -111 91 -63l8 -24c-135 -77 -166 -35 -142 84z" />
    <glyph glyph-name="Wacute" unicode="&#x1e82;" 
d="M270 717c65 43 151 116 203 170l36 -38c-60 -51 -156 -113 -227 -153zM339 0l-30 363l-170 -363h-58c6 117 31 353 70 620h44c-30 -197 -64 -471 -72 -568h4l180 387h34l31 -387h3c30 97 103 371 149 568h43c-64 -267 -132 -503 -171 -620h-57z" />
    <glyph glyph-name="wacute" unicode="&#x1e83;" 
d="M241 577c65 43 151 116 203 170l36 -38c-60 -51 -156 -113 -227 -153zM343 0l-51 299l-163 -299h-46c4 127 17 303 40 480h44c-18 -148 -32 -284 -43 -414h3l162 299h31l49 -300h4c41 132 79 268 116 415h47c-46 -167 -95 -323 -153 -480h-40z" />
    <glyph glyph-name="Wcircumflex" unicode="&#x174;" 
d="M510 698l-106 128l-166 -124l-21 26l195 147h1l128 -151zM339 0l-30 363l-170 -363h-58c6 117 31 353 70 620h44c-30 -197 -64 -471 -72 -568h4l180 387h34l31 -387h3c30 97 103 371 149 568h43c-64 -267 -132 -503 -171 -620h-57z" />
    <glyph glyph-name="wcircumflex" unicode="&#x175;" 
d="M481 558l-106 128l-166 -124l-21 26l195 147h1l128 -151zM343 0l-51 299l-163 -299h-46c4 127 17 303 40 480h44c-18 -148 -32 -284 -43 -414h3l162 299h31l49 -300h4c41 132 79 268 116 415h47c-46 -167 -95 -323 -153 -480h-40z" />
    <glyph glyph-name="Wdieresis" unicode="&#x1e84;" 
d="M494 709l-42 -2l30 130l50 1zM285 706l-42 -1l31 129l49 1zM339 0l-30 363l-170 -363h-58c6 117 31 353 70 620h44c-30 -197 -64 -471 -72 -568h4l180 387h34l31 -387h3c30 97 103 371 149 568h43c-64 -267 -132 -503 -171 -620h-57z" />
    <glyph glyph-name="wdieresis" unicode="&#x1e85;" 
d="M465 569l-42 -2l30 130l50 1zM256 566l-42 -1l31 129l49 1zM343 0l-51 299l-163 -299h-46c4 127 17 303 40 480h44c-18 -148 -32 -284 -43 -414h3l162 299h31l49 -300h4c41 132 79 268 116 415h47c-46 -167 -95 -323 -153 -480h-40z" />
    <glyph glyph-name="Wgrave" unicode="&#x1e80;" 
d="M466 708l-15 -20c-55 40 -136 113 -184 170l39 36c40 -59 109 -140 160 -186zM339 0l-30 363l-170 -363h-58c6 117 31 353 70 620h44c-30 -197 -64 -471 -72 -568h4l180 387h34l31 -387h3c30 97 103 371 149 568h43c-64 -267 -132 -503 -171 -620h-57z" />
    <glyph glyph-name="wgrave" unicode="&#x1e81;" 
d="M437 568l-15 -20c-55 40 -136 113 -184 170l39 36c40 -59 109 -140 160 -186zM343 0l-51 299l-163 -299h-46c4 127 17 303 40 480h44c-18 -148 -32 -284 -43 -414h3l162 299h31l49 -300h4c41 132 79 268 116 415h47c-46 -167 -95 -323 -153 -480h-40z" />
    <glyph glyph-name="Yacute" unicode="&#xdd;" 
d="M261 718c65 43 151 116 203 170l36 -38c-60 -51 -156 -113 -227 -153zM250 0h-45l41 213l-131 406l46 2l117 -365l257 364h49l-294 -413z" />
    <glyph glyph-name="yacute" unicode="&#xfd;" 
d="M245 585c65 43 151 116 203 170l36 -38c-60 -51 -156 -113 -227 -153zM408 -99c-26 -52 -120 -87 -346 -72l7 47c209 -19 277 6 297 25c29 30 17 110 17 257c-57 -73 -139 -136 -213 -136c-89 0 -145 88 -7 458l43 1c-124 -343 -88 -418 -17 -418c55 0 135 59 196 138
c12 125 68 287 89 287c14 0 31 -7 31 -18c0 -25 -39 -168 -82 -262c-1 -18 -2 -37 -2 -55c0 -133 9 -208 -13 -252z" />
    <glyph glyph-name="Ycircumflex" unicode="&#x176;" 
d="M501 699l-106 128l-166 -124l-21 26l195 147h1l128 -151zM250 0h-45l41 213l-131 406l46 2l117 -365l257 364h49l-294 -413z" />
    <glyph glyph-name="ycircumflex" unicode="&#x177;" 
d="M485 566l-106 128l-166 -124l-21 26l195 147h1l128 -151zM408 -99c-26 -52 -120 -87 -346 -72l7 47c209 -19 277 6 297 25c29 30 17 110 17 257c-57 -73 -139 -136 -213 -136c-89 0 -145 88 -7 458l43 1c-124 -343 -88 -418 -17 -418c55 0 135 59 196 138
c12 125 68 287 89 287c14 0 31 -7 31 -18c0 -25 -39 -168 -82 -262c-1 -18 -2 -37 -2 -55c0 -133 9 -208 -13 -252z" />
    <glyph glyph-name="Ydieresis" unicode="&#x178;" 
d="M485 710l-42 -2l30 130l50 1zM276 707l-42 -1l31 129l49 1zM250 0h-45l41 213l-131 406l46 2l117 -365l257 364h49l-294 -413z" />
    <glyph glyph-name="ydieresis" unicode="&#xff;" 
d="M469 577l-42 -2l30 130l50 1zM260 574l-42 -1l31 129l49 1zM408 -99c-26 -52 -120 -87 -346 -72l7 47c209 -19 277 6 297 25c29 30 17 110 17 257c-57 -73 -139 -136 -213 -136c-89 0 -145 88 -7 458l43 1c-124 -343 -88 -418 -17 -418c55 0 135 59 196 138
c12 125 68 287 89 287c14 0 31 -7 31 -18c0 -25 -39 -168 -82 -262c-1 -18 -2 -37 -2 -55c0 -133 9 -208 -13 -252z" />
    <glyph glyph-name="Ygrave" unicode="&#x1ef2;" 
d="M457 709l-15 -20c-55 40 -136 113 -184 170l39 36c40 -59 109 -140 160 -186zM250 0h-45l41 213l-131 406l46 2l117 -365l257 364h49l-294 -413z" />
    <glyph glyph-name="ygrave" unicode="&#x1ef3;" 
d="M440 576l-15 -20c-55 40 -136 113 -184 170l39 36c40 -59 109 -140 160 -186zM408 -99c-26 -52 -120 -87 -346 -72l7 47c209 -19 277 6 297 25c29 30 17 110 17 257c-57 -73 -139 -136 -213 -136c-89 0 -145 88 -7 458l43 1c-124 -343 -88 -418 -17 -418
c55 0 135 59 196 138c12 125 68 287 89 287c14 0 31 -7 31 -18c0 -25 -39 -168 -82 -262c-1 -18 -2 -37 -2 -55c0 -133 9 -208 -13 -252z" />
    <glyph glyph-name="Zacute" unicode="&#x179;" 
d="M262 717c65 43 151 116 203 170l36 -38c-60 -51 -156 -113 -227 -153zM431 0h-401l6 39l454 542l-340 -1l8 40h390l-7 -39l-453 -542l350 1z" />
    <glyph glyph-name="zacute" unicode="&#x17a;" 
d="M235 577c65 43 151 116 203 170l36 -38c-60 -51 -156 -113 -227 -153zM422 0h-388l7 38l413 404l-329 -1l11 39h375l-7 -37l-414 -405l343 1z" />
    <glyph glyph-name="Zcaron" unicode="&#x17d;" 
d="M361 695h-1l-129 151l32 26l105 -128l166 124l22 -26zM431 0h-401l6 39l454 542l-340 -1l8 40h390l-7 -39l-453 -542l350 1z" />
    <glyph glyph-name="zcaron" unicode="&#x17e;" 
d="M334 555h-1l-129 151l32 26l105 -128l166 124l22 -26zM422 0h-388l7 38l413 404l-329 -1l11 39h375l-7 -37l-414 -405l343 1z" />
    <glyph glyph-name="Zdotaccent" unicode="&#x17b;" 
d="M381 707l-42 -1l31 129l50 1zM431 0h-401l6 39l454 542l-340 -1l8 40h390l-7 -39l-453 -542l350 1z" />
    <glyph glyph-name="zdotaccent" unicode="&#x17c;" 
d="M354 567l-42 -1l31 129l50 1zM422 0h-388l7 38l413 404l-329 -1l11 39h375l-7 -37l-414 -405l343 1z" />
    <glyph glyph-name="AE" unicode="&#xc6;" 
d="M356 580c-63 -115 -125 -229 -187 -342h128l67 342h-8zM251 0l39 202h-140c-37 -68 -73 -135 -109 -202h-50c113 204 228 413 345 620h259l-7 -40h-179l-48 -247h153l-7 -36h-153l-50 -257h181l-12 -40h-222z" />
    <glyph glyph-name="ae" unicode="&#xe6;" 
d="M504 54c-152 -104 -229 -66 -244 41c-43 -57 -90 -102 -142 -102c-43 0 -70 42 -70 126c0 182 99 368 221 368c37 0 68 -14 102 -41c28 27 60 43 94 43c51 0 79 -33 79 -88c0 -104 -91 -199 -243 -217c-1 -14 -2 -29 -2 -42c0 -113 52 -147 200 -62zM454 450
c-71 0 -130 -121 -149 -236c118 16 197 93 197 178c0 37 -17 58 -48 58zM130 34c37 0 85 49 127 106c1 97 34 203 85 273c-32 26 -64 36 -88 36c-94 0 -163 -176 -163 -328c0 -59 14 -87 39 -87z" />
    <glyph glyph-name="AEacute" unicode="&#x1fc;" 
d="M382 717c65 43 151 116 203 170l36 -38c-60 -51 -156 -113 -227 -153zM356 580c-63 -115 -125 -229 -187 -342h128l67 342h-8zM251 0l39 202h-140c-37 -68 -73 -135 -109 -202h-50c113 204 228 413 345 620h259l-7 -40h-179l-48 -247h153l-7 -36h-153l-50 -257h181
l-12 -40h-222z" />
    <glyph glyph-name="aeacute" unicode="&#x1fd;" 
d="M265 577c65 43 151 116 203 170l36 -38c-60 -51 -156 -113 -227 -153zM504 54c-152 -104 -229 -66 -244 41c-43 -57 -90 -102 -142 -102c-43 0 -70 42 -70 126c0 182 99 368 221 368c37 0 68 -14 102 -41c28 27 60 43 94 43c51 0 79 -33 79 -88
c0 -104 -91 -199 -243 -217c-1 -14 -2 -29 -2 -42c0 -113 52 -147 200 -62zM454 450c-71 0 -130 -121 -149 -236c118 16 197 93 197 178c0 37 -17 58 -48 58zM130 34c37 0 85 49 127 106c1 97 34 203 85 273c-32 26 -64 36 -88 36c-94 0 -163 -176 -163 -328
c0 -59 14 -87 39 -87z" />
    <glyph glyph-name="OE" unicode="&#x152;" 
d="M109 204c0 -129 60 -162 150 -164l105 540c-209 -3 -255 -274 -255 -376zM481 40l-12 -40h-200c-118 0 -204 40 -204 201c0 125 57 419 329 419h197l-7 -40h-175l-48 -247h149l-7 -36h-149l-50 -257h177z" />
    <glyph glyph-name="oe" unicode="&#x153;" 
d="M511 56c-147 -111 -220 -67 -231 47c-34 -66 -81 -111 -135 -111c-60 0 -97 48 -97 157c0 165 87 340 196 340c53 0 82 -45 89 -123c35 71 84 123 142 123c48 0 75 -37 75 -95c0 -110 -89 -191 -230 -210c0 -12 -1 -24 -1 -35c0 -111 51 -153 180 -71zM294 332
c0 75 -20 119 -61 119c-75 0 -141 -168 -141 -298c0 -81 26 -123 66 -123c75 0 136 163 136 302zM462 448c-67 0 -122 -119 -138 -233c107 17 184 80 184 171c0 40 -18 62 -46 62z" />
    <glyph glyph-name="Eth" unicode="&#xd0;" 
d="M515 380c0 -229 -154 -421 -460 -380l58 298h-80l7 35h80l55 286c212 37 340 -42 340 -239zM312 298h-155l-51 -262c247 -22 364 142 364 339c0 165 -93 230 -257 210l-49 -252h157z" />
    <glyph glyph-name="eth" unicode="&#xf0;" 
d="M247 -10c-111 0 -183 79 -183 194c0 146 102 272 250 272c33 0 73 -5 113 -19c-15 44 -40 86 -75 128l-160 -44l-10 32l145 40c-28 29 -61 57 -99 86l31 30c44 -34 82 -68 113 -103l122 34l8 -33l-106 -29c67 -86 98 -175 98 -271c0 -199 -102 -317 -247 -317zM258 28
c118 0 193 112 193 269c0 30 -3 60 -9 88c-53 25 -106 33 -142 33c-111 0 -192 -105 -192 -222c0 -100 61 -168 150 -168z" />
    <glyph glyph-name="Thorn" unicode="&#xde;" 
d="M110 0h-45l121 620h45l-21 -105c218 16 306 -59 306 -160c0 -138 -141 -227 -385 -246zM471 349c0 86 -79 143 -269 124l-62 -319c215 5 331 79 331 195z" />
    <glyph glyph-name="thorn" unicode="&#xfe;" 
d="M228 28c124 0 216 138 216 294c0 86 -37 128 -83 128c-55 0 -135 -54 -187 -113l-57 -291c42 -12 80 -18 111 -18zM74 -172l-42 -4l169 874l44 4l-63 -320c58 59 136 109 194 109c63 0 111 -54 111 -161c0 -180 -121 -339 -284 -339c-28 0 -60 4 -95 11z" />
    <glyph glyph-name="schwa" unicode="&#x259;" 
d="M194 -11c-81 0 -130 42 -130 108c0 112 136 181 369 199v9c0 145 -117 189 -332 97l-9 25c246 127 384 48 384 -116c0 -151 -118 -322 -282 -322zM202 28c128 0 212 120 228 238c-193 -16 -323 -68 -323 -163c0 -45 36 -75 95 -75z" />
    <glyph glyph-name="germandbls" unicode="&#xdf;" 
d="M196 -5l7 43c176 -20 236 22 236 80c0 53 -48 118 -167 208c129 113 179 179 179 247c0 49 -30 85 -89 85c-81 0 -140 -69 -164 -188l-91 -470h-43l91 466c28 145 113 231 220 231c81 0 119 -50 119 -116c0 -71 -53 -149 -166 -247c98 -76 154 -146 154 -207
c0 -79 -76 -149 -286 -132z" />
    <glyph glyph-name="zero" unicode="0" 
d="M69 217c0 214 118 414 274 414c100 0 166 -76 166 -227c0 -215 -118 -415 -274 -415c-100 0 -166 76 -166 228zM334 591c-126 0 -216 -172 -221 -352l351 182c-6 114 -54 170 -130 170zM244 29c127 0 217 173 221 354l-351 -183c5 -115 54 -171 130 -171z" />
    <glyph glyph-name="zero.alt" 
d="M69 217c0 214 118 414 274 414c100 0 166 -76 166 -227c0 -215 -118 -415 -274 -415c-100 0 -166 76 -166 228zM113 224c0 -131 50 -195 131 -195c130 0 221 182 221 367c0 131 -49 195 -131 195c-129 0 -221 -182 -221 -367z" />
    <glyph glyph-name="one" unicode="1" 
d="M438 0h-378l8 39h177l94 487l-167 -11l5 33l170 22l15 76l45 3l-118 -610h159z" />
    <glyph glyph-name="two" unicode="2" 
d="M434 0h-387l-1 38c259 178 406 290 406 418c0 95 -77 149 -286 116l7 43c216 35 323 -26 323 -149c0 -143 -141 -257 -388 -426h334z" />
    <glyph glyph-name="three" unicode="3" 
d="M467 165c0 -91 -89 -194 -408 -165l6 44c296 -30 360 44 360 113c0 62 -58 119 -256 165l4 24l297 234h-301l8 40h352l-5 -38l-297 -235c183 -46 240 -113 240 -182z" />
    <glyph glyph-name="four" unicode="4" 
d="M482 143h-76l-28 -143h-42l28 143h-302l2 30c86 141 144 258 203 453l47 -3c-64 -202 -124 -313 -206 -440h263l45 230l43 5l-46 -235h82z" />
    <glyph glyph-name="five" unicode="5" 
d="M462 188c0 -102 -105 -214 -405 -188l6 44c275 -27 357 57 357 134c0 67 -66 130 -280 167l69 275h315l-11 -40h-273l-51 -205c208 -41 273 -112 273 -187z" />
    <glyph glyph-name="six" unicode="6" 
d="M257 -9c-101 0 -180 64 -180 204c0 156 95 348 390 448l11 -43c-225 -71 -317 -194 -347 -306c153 144 340 85 340 -84c0 -129 -95 -219 -214 -219zM266 30c99 0 163 75 163 173c0 141 -159 193 -306 51c-2 -16 -3 -32 -3 -47c0 -128 67 -177 146 -177z" />
    <glyph glyph-name="seven" unicode="7" 
d="M166 -3l-46 5c105 194 230 389 379 575v3h-342l8 40h391l-7 -35c-150 -190 -278 -390 -383 -588z" />
    <glyph glyph-name="eight" unicode="8" 
d="M439 141c0 -82 -87 -152 -205 -152c-100 0 -173 52 -173 130c0 58 32 113 186 214c-51 50 -96 101 -96 156c0 88 109 169 312 128l-12 -44c-189 44 -257 -14 -257 -76c0 -45 42 -92 91 -140c58 37 132 80 224 130l17 -30c-90 -48 -161 -89 -217 -124
c64 -61 130 -124 130 -192zM246 28c88 0 151 49 151 109c0 58 -63 114 -125 173c-144 -93 -166 -138 -166 -181c0 -63 60 -101 140 -101z" />
    <glyph glyph-name="nine" unicode="9" 
d="M110 -20l-11 43c226 70 318 194 347 306c-152 -144 -339 -86 -339 84c0 129 95 219 213 219c101 0 181 -64 181 -204c0 -157 -96 -349 -391 -448zM149 420c0 -142 158 -194 305 -52c2 16 3 32 3 47c0 129 -66 177 -146 177c-99 0 -162 -75 -162 -172z" />
    <glyph glyph-name="period" unicode="." 
d="M272 0h-75l18 87h75z" />
    <glyph glyph-name="comma" unicode="," 
d="M122 -183c90 86 109 149 90 269l75 3c-5 -122 -43 -198 -147 -284z" />
    <glyph glyph-name="colon" unicode=":" 
d="M340 340h-75l18 87h75zM267 0h-75l18 87h76z" />
    <glyph glyph-name="colon.alt" 
d="M360 437h-75l18 87h75zM287 97h-75l18 87h76z" />
    <glyph glyph-name="semicolon" unicode=";" 
d="M340 340h-75l18 87h75zM117 -183c90 86 109 149 90 269l75 3c-5 -122 -43 -198 -147 -284z" />
    <glyph glyph-name="ellipsis" unicode="&#x2026;" 
d="M486 0h-75l18 87h75zM303 0h-75l18 87h75zM120 0h-75l18 87h75z" />
    <glyph glyph-name="periodcentered" unicode="&#xb7;" 
d="M305 266h-75l18 87h75z" />
    <glyph glyph-name="ampersand" unicode="&#x26;" 
d="M486 -18c-52 47 -97 95 -133 145c-80 -89 -160 -137 -223 -137c-67 0 -105 41 -105 111c0 113 107 231 226 342c7 94 57 197 93 197c18 0 30 -12 30 -38c0 -50 -33 -114 -87 -173c3 -86 28 -163 74 -237c36 47 71 104 105 171l41 -14c-40 -73 -82 -136 -125 -189
c36 -49 81 -96 135 -144zM141 31c51 0 120 43 191 126c-48 75 -77 155 -81 241c-95 -96 -183 -199 -183 -290c0 -48 28 -77 73 -77z" />
    <glyph glyph-name="exclam" unicode="!" 
d="M280 220h-28c27 139 53 309 78 455h58c-35 -146 -77 -316 -108 -455zM255 0h-75l18 85h75z" />
    <glyph glyph-name="exclamdown" unicode="&#xa1;" 
d="M311 620h76l-19 -85h-75zM286 400h29c-28 -139 -53 -309 -79 -455h-58c35 146 77 316 108 455z" />
    <glyph glyph-name="question" unicode="?" 
d="M145 635l8 43c242 -27 359 -79 359 -173c0 -83 -82 -162 -297 -272l-14 26c201 103 263 168 263 232c0 83 -109 118 -319 144zM205 0h-75l18 85h75z" />
    <glyph glyph-name="questiondown" unicode="&#xbf;" 
d="M372 620h75l-19 -85h-75zM431 -15l-8 -43c-241 27 -358 79 -358 173c0 83 82 162 297 272l14 -26c-201 -103 -264 -168 -264 -232c0 -83 110 -118 319 -144z" />
    <glyph glyph-name="quotedblleft" unicode="&#x201c;" 
d="M525 675c-90 -86 -109 -149 -90 -269l-75 -3c5 122 43 198 147 284zM326 675c-90 -86 -109 -149 -90 -269l-75 -3c5 122 43 198 147 284z" />
    <glyph glyph-name="quotedblright" unicode="&#x201d;" 
d="M132 389c90 86 109 149 90 269l75 3c-5 -122 -43 -198 -147 -284zM331 389c90 86 109 149 90 269l75 3c-5 -122 -43 -198 -147 -284z" />
    <glyph glyph-name="quoteleft" unicode="&#x2018;" 
d="M425 675c-90 -86 -109 -149 -90 -269l-75 -3c5 122 43 198 147 284z" />
    <glyph glyph-name="quoteright" unicode="&#x2019;" 
d="M230 389c90 86 109 149 90 269l75 3c-5 -122 -43 -198 -147 -284z" />
    <glyph glyph-name="quotedblbase" unicode="&#x201e;" 
d="M20 -183c90 86 109 149 90 269l75 3c-5 -122 -43 -198 -147 -284zM219 -183c90 86 109 149 90 269l75 3c-5 -122 -43 -198 -147 -284z" />
    <glyph glyph-name="quotesinglbase" unicode="&#x201a;" 
d="M119 -183c90 86 109 149 90 269l75 3c-5 -122 -43 -198 -147 -284z" />
    <glyph glyph-name="guillemotleft" unicode="&#xab;" 
d="M194 -10l-134 228l12 48l220 226l30 -28l-227 -226l137 -224zM421 -10l-132 229l13 48l222 224l30 -28l-230 -224l135 -226z" />
    <glyph glyph-name="guillemotleft.cap" 
d="M208 60l-134 228l12 48l220 226l30 -28l-227 -226l137 -224zM435 60l-132 229l13 48l222 224l30 -28l-230 -224l135 -226z" />
    <glyph glyph-name="guillemotright" unicode="&#xbb;" 
d="M277 -11l-30 28l227 226l-137 224l38 24l134 -228l-12 -48zM45 -10l-30 28l230 224l-135 226l38 23l132 -229l-13 -48z" />
    <glyph glyph-name="guillemotright.cap" 
d="M291 59l-30 28l227 226l-137 224l38 24l134 -228l-12 -48zM59 60l-30 28l230 224l-135 226l38 23l132 -229l-13 -48z" />
    <glyph glyph-name="guilsinglleft" unicode="&#x2039;" 
d="M326 -14l-196 233l13 48l288 227l26 -33l-287 -222l189 -223z" />
    <glyph glyph-name="guilsinglleft.cap" 
d="M340 56l-196 233l13 48l288 227l26 -33l-287 -222l189 -223z" />
    <glyph glyph-name="guilsinglright" unicode="&#x203a;" 
d="M112 -13l-26 33l287 222l-189 223l33 30l196 -233l-13 -48z" />
    <glyph glyph-name="guilsinglright.cap" 
d="M126 57l-26 33l287 222l-189 223l33 30l196 -233l-13 -48z" />
    <glyph glyph-name="hyphen" unicode="-" 
d="M424 306l-7 -38h-293l7 38h293z" />
    <glyph glyph-name="endash" unicode="&#x2013;" 
d="M484 305l-6 -35h-397l7 35h396z" />
    <glyph glyph-name="emdash" unicode="&#x2014;" 
d="M519 305l-6 -35h-440l6 35h440z" />
    <glyph glyph-name="underscore" unicode="_" 
d="M458 -50l-7 -36h-479l7 36h479z" />
    <glyph glyph-name="slash" unicode="/" 
d="M570 708l33 -19l-616 -864l-39 10z" />
    <glyph glyph-name="backslash" unicode="\" 
d="M157 706l284 -873l-37 -10l-282 871z" />
    <glyph glyph-name="bar" unicode="|" 
d="M342 698l40 2l-171 -880h-40z" />
    <glyph glyph-name="parenleft" unicode="(" 
d="M511 712l23 -34c-265 -164 -363 -307 -363 -461c0 -116 63 -241 210 -390l-34 -27c-154 160 -218 294 -218 417c0 166 112 320 382 495z" />
    <glyph glyph-name="parenleft.cap" 
d="M521 761l23 -34c-265 -164 -363 -307 -363 -461c0 -116 63 -241 210 -390l-34 -27c-154 160 -218 294 -218 417c0 166 112 320 382 495z" />
    <glyph glyph-name="parenright" unicode=")" 
d="M35 -214l-23 34c265 164 363 307 363 461c0 116 -63 241 -210 390l34 27c154 -160 218 -294 218 -417c0 -166 -112 -320 -382 -495z" />
    <glyph glyph-name="parenright.cap" 
d="M45 -165l-23 34c265 164 363 307 363 461c0 116 -63 241 -210 390l34 27c154 -160 218 -294 218 -417c0 -166 -112 -320 -382 -495z" />
    <glyph glyph-name="bracketleft" unicode="[" 
d="M69 -178l169 868h302l-8 -37h-260l-154 -794h260l-7 -37h-302z" />
    <glyph glyph-name="bracketleft.cap" 
d="M79 -129l169 868h302l-8 -37h-260l-154 -794h260l-7 -37h-302z" />
    <glyph glyph-name="bracketright" unicode="]" 
d="M480 691l-169 -868h-302l8 37h260l154 794h-260l7 37h302z" />
    <glyph glyph-name="bracketright.cap" 
d="M490 740l-169 -868h-302l8 37h260l154 794h-260l7 37h302z" />
    <glyph glyph-name="braceleft" unicode="{" 
d="M375 -203c-178 79 -251 130 -251 192c0 85 122 124 122 182c0 37 -43 63 -146 72l5 33c140 9 180 47 180 83c0 44 -70 100 -70 161c0 69 84 138 326 196l8 -41c-210 -44 -294 -91 -294 -146c0 -50 71 -112 71 -161c0 -40 -39 -87 -131 -108c69 -17 93 -48 93 -81
c0 -72 -120 -110 -120 -181c0 -51 68 -95 227 -164z" />
    <glyph glyph-name="braceleft.cap" 
d="M385 -154c-178 79 -251 130 -251 192c0 85 122 124 122 182c0 37 -43 63 -146 72l5 33c140 9 180 47 180 83c0 44 -70 100 -70 161c0 69 84 138 326 196l8 -41c-210 -44 -294 -91 -294 -146c0 -50 71 -112 71 -161c0 -40 -39 -87 -131 -108c69 -17 93 -48 93 -81
c0 -72 -120 -110 -120 -181c0 -51 68 -95 227 -164z" />
    <glyph glyph-name="braceright" unicode="}" 
d="M7 -202l-8 41c210 44 294 91 294 146c0 50 -71 112 -71 161c0 40 39 87 131 108c-69 17 -93 48 -93 81c0 72 120 110 120 181c0 51 -68 95 -227 164l20 37c178 -79 251 -130 251 -192c0 -85 -122 -124 -122 -182c0 -37 43 -63 146 -72l-5 -33c-140 -9 -180 -47 -180 -83
c0 -44 70 -100 70 -161c0 -69 -84 -138 -326 -196z" />
    <glyph glyph-name="braceright.cap" 
d="M17 -153l-8 41c210 44 294 91 294 146c0 50 -71 112 -71 161c0 40 39 87 131 108c-69 17 -93 48 -93 81c0 72 120 110 120 181c0 51 -68 95 -227 164l20 37c178 -79 251 -130 251 -192c0 -85 -122 -124 -122 -182c0 -37 43 -63 146 -72l-5 -33c-140 -9 -180 -47 -180 -83
c0 -44 70 -100 70 -161c0 -69 -84 -138 -326 -196z" />
    <glyph glyph-name="at" unicode="@" 
d="M398 -138c-241 -60 -336 44 -336 250c0 286 156 568 355 568c111 0 149 -84 116 -240l-45 -215c-10 -50 -20 -113 -26 -161l-40 1l5 50c-36 -31 -81 -56 -116 -56c-42 0 -73 41 -73 127c0 142 83 290 201 290c16 0 36 -3 59 -9c20 117 -9 176 -93 176
c-163 0 -302 -262 -302 -527c0 -184 78 -275 300 -215zM329 99c29 0 73 25 104 53l57 274c-27 8 -52 13 -72 13c-74 0 -139 -130 -139 -250c0 -64 22 -90 50 -90z" />
    <glyph glyph-name="copyright" unicode="&#xa9;" 
d="M312 613c116 0 203 -95 203 -250c0 -216 -125 -356 -266 -356c-116 0 -203 95 -203 250c0 216 125 356 266 356zM306 583c-123 0 -228 -135 -228 -319c0 -139 76 -227 177 -227c123 0 228 135 228 319c0 139 -76 227 -177 227zM318 490c56 0 71 -44 67 -121l-34 -1
c1 56 -5 90 -39 90c-66 0 -115 -99 -115 -193c0 -96 57 -118 153 -78l-4 -34c-115 -47 -185 -7 -185 105c0 119 69 232 157 232z" />
    <glyph glyph-name="published" unicode="&#x2117;" 
d="M515 363c0 -216 -125 -356 -266 -356c-116 0 -203 95 -203 250c0 216 125 356 266 356c116 0 203 -95 203 -250zM306 583c-123 0 -228 -135 -228 -319c0 -139 76 -227 177 -227c123 0 228 135 228 319c0 139 -76 227 -177 227zM203 140h-35l65 341
c126 17 177 -26 177 -86c0 -72 -74 -121 -183 -133zM374 388c0 40 -33 71 -109 66l-31 -157c91 2 140 36 140 91z" />
    <glyph glyph-name="registered.alt" 
d="M46 257c0 216 125 356 266 356c116 0 203 -95 203 -250c0 -216 -125 -356 -266 -356c-116 0 -203 95 -203 250zM78 264c0 -139 76 -227 177 -227c123 0 228 135 228 319c0 139 -76 227 -177 227c-123 0 -228 -135 -228 -319zM339 141l-92 159c77 36 114 64 114 106
c0 36 -33 58 -100 52l-61 -315h-36l67 341c117 17 165 -19 165 -72c0 -51 -35 -86 -102 -121l86 -146z" />
    <glyph glyph-name="registered" unicode="&#xae;" 
d="M330 668c119 0 195 -76 195 -203c0 -152 -96 -261 -229 -261c-119 0 -195 76 -195 203c0 152 96 261 229 261zM330 641c-112 0 -200 -90 -200 -230c0 -115 69 -180 166 -180c112 0 200 90 200 230c0 115 -69 180 -166 180zM364 322l-84 103c75 25 96 49 96 69
c0 22 -19 41 -88 33l-39 -203h-30l44 226c111 17 142 -15 142 -51c0 -29 -20 -56 -82 -82l76 -91z" />
    <glyph glyph-name="servicemark" unicode="&#x2120;" 
d="M395 346l-17 239h-3l-55 -288h-34l63 322l56 2l16 -227h2l100 226h57l-63 -323h-36l57 288h-3l-108 -239h-32zM280 539l-33 -4c-5 41 -20 60 -44 60c-27 0 -49 -22 -49 -56c0 -64 89 -99 89 -169c0 -54 -48 -99 -179 -63l6 34c103 -30 140 -15 140 25
c0 58 -89 96 -89 168c0 51 39 91 90 91c41 0 64 -30 69 -86z" />
    <glyph glyph-name="trademark" unicode="&#x2122;" 
d="M296 620l-7 -34h-73l-56 -287h-35l56 287h-75l7 34h183zM405 621l16 -227h2l100 226h57l-63 -323h-36l57 288h-3l-108 -239h-32l-17 239h-3l-55 -288h-34l63 322z" />
    <glyph glyph-name="asterisk" unicode="*" 
d="M368 299l-70 143l-135 -84l-16 20l115 110l-124 103l15 21l139 -76l62 149l26 -7l-29 -157l160 -13v-25l-158 -20l39 -154z" />
    <glyph glyph-name="asterisk.alt" 
d="M341 557l-21 5l23 127l46 -13zM271 551l-16 -17l-98 83l34 34zM383 498l-7 23l121 43l13 -46zM241 486l7 -23l-121 -43l-13 46zM354 433l15 17l98 -83l-33 -34zM283 426l21 -5l-22 -126l-46 12z" />
    <glyph glyph-name="dagger" unicode="&#x2020;" 
d="M256 118l-28 -13l-6 6l71 377l-164 17l7 37l164 -18l32 170l43 -5l-32 -169l166 -18l-7 -36l-166 17z" />
    <glyph glyph-name="daggerdbl" unicode="&#x2021;" 
d="M247 68l-29 -13l-5 6l43 227l-168 18l7 37l168 -18l30 163l-164 17l7 37l164 -18l32 170l43 -5l-32 -169l166 -18l-7 -36l-166 17l-35 -162l167 -18l-7 -36l-168 18z" />
    <glyph glyph-name="bullet" unicode="&#x2022;" 
d="M385 309c0 -70 -54 -120 -112 -120c-52 0 -91 41 -91 98c0 70 53 120 110 120c54 0 93 -41 93 -98z" />
    <glyph glyph-name="bullet.alt" 
d="M356 204h-177l36 184h177z" />
    <glyph glyph-name="asciicircum" unicode="^" 
d="M448 170l-140 256l-226 -259l-29 26l255 292l13 2l166 -293z" />
    <glyph glyph-name="asciitilde" unicode="~" 
d="M375 205c-85 0 -115 160 -177 160c-40 0 -83 -66 -119 -150l-31 13c51 116 102 177 157 177c86 0 114 -160 175 -160c40 0 84 66 120 150l32 -13c-52 -117 -102 -177 -157 -177z" />
    <glyph glyph-name="dollar" unicode="$" 
d="M193 486c0 -43 44 -90 94 -139l63 212c-115 8 -157 -31 -157 -73zM398 137c0 43 -46 91 -99 141l-66 -220c116 -5 165 36 165 79zM440 140c0 -60 -63 -122 -218 -120l-29 -108l-40 1l32 109c-42 3 -89 10 -143 23l11 44c56 -16 104 -25 145 -29l74 243
c-61 58 -122 118 -122 177c0 62 59 124 210 116l34 111h42l-37 -114c35 -4 75 -11 120 -23l-8 -43c-48 14 -90 23 -126 28l-71 -233c62 -60 126 -122 126 -182z" />
    <glyph glyph-name="sterling" unicode="&#xa3;" 
d="M483 126c-75 -206 -171 -126 -346 -90c-28 -31 -64 -48 -100 -48c-83 0 -52 92 82 88c29 63 38 127 45 191h-83l7 38h80c7 63 16 126 47 187c36 72 103 142 190 142c84 0 123 -61 119 -179l-45 -1c0 108 -32 139 -84 139c-60 0 -110 -47 -141 -109
c-25 -50 -35 -114 -43 -179h208l-7 -38h-205c-8 -70 -17 -138 -43 -190l-3 -6c157 -31 230 -92 297 69z" />
    <glyph glyph-name="Euro" unicode="&#x20ac;" 
d="M460 31c-220 -100 -349 -19 -355 172h-77l8 39h70c2 41 9 81 20 120h-68l8 38h73c51 132 151 233 267 233c97 0 132 -62 133 -177l-44 -5c-1 89 -19 143 -98 143c-94 0 -173 -87 -216 -196h234l-9 -36h-237c-12 -39 -19 -79 -21 -119h236l-9 -37h-227
c8 -172 116 -216 305 -145z" />
    <glyph glyph-name="yen" unicode="&#xa5;" 
d="M451 119h-178l-23 -119h-44l23 119h-183l7 38h184l20 102l-5 13h-176l7 38h155l-116 309l46 2l119 -319l241 318h49l-238 -310h150l-7 -38h-172l-11 -15l-19 -100h180z" />
    <glyph glyph-name="cent" unicode="&#xa2;" 
d="M134 252c0 -61 31 -116 124 -147l74 324c-148 -21 -198 -94 -198 -177zM419 37c-52 2 -97 7 -135 16l-31 -139h-42l35 149c-110 36 -153 102 -153 180c0 101 68 200 247 228l33 149h42l-34 -144c36 3 75 3 118 1l-8 -44c-45 3 -85 3 -120 0l-78 -338
c37 -9 81 -15 135 -17z" />
    <glyph glyph-name="colonmonetary" unicode="&#x20a1;" 
d="M314 84l128 460c-35 -5 -67 -12 -95 -20l-114 -410c23 -11 50 -21 81 -30zM126 281c0 -62 23 -113 78 -150l105 381c-132 -49 -183 -133 -183 -231zM268 -74l34 118c-31 8 -57 18 -81 29l-41 -147h-38l47 164c-72 45 -104 109 -104 186c0 116 68 221 232 277l39 140h38
l-35 -127c28 8 60 14 94 19l29 108h38l-28 -103c25 3 51 5 79 6l-3 -41c-32 -1 -62 -4 -91 -7l-131 -471c29 -6 61 -11 96 -14l-15 -39c-33 3 -63 7 -91 12l-30 -110h-38z" />
    <glyph glyph-name="naira" unicode="&#x20a6;" 
d="M198 545l-22 -116h59l-32 116h-5zM332 223h78l33 173l-158 -1zM136 222l156 1l-48 172h-75zM374 68h6l23 121h-62zM354 0l-52 189l-173 -1l-36 -188h-38l36 187h-76l7 37l77 1l32 167l-77 -1l8 38h76l37 190l48 2l52 -192l175 1l36 190h38l-37 -190l76 1l-7 -38h-76
l-33 -167h76l-7 -38h-76l-37 -188h-49z" />
    <glyph glyph-name="peso" unicode="&#x20b1;" 
d="M456 434c0 92 -69 163 -240 148l-30 -153h270v5zM150 243c173 2 278 58 301 151h-272zM564 391h-70c-28 -110 -156 -178 -353 -193l-38 -198h-44l75 391h-84l7 38h85l36 189c230 30 322 -63 322 -179v-10h71z" />
    <glyph glyph-name="R_p" 
d="M216 -5l-65 282v3c95 89 132 150 132 218c0 60 -31 90 -94 87l-114 -585h-44l120 619c121 17 175 -30 175 -113c0 -80 -39 -138 -131 -231l66 -270zM383 34c62 0 127 190 127 336c0 51 -11 80 -33 80c-20 0 -44 -18 -72 -48c-14 -77 -40 -214 -68 -358
c19 -7 36 -10 46 -10zM295 -172l-42 -4c63 327 94 486 122 655l42 3l-7 -45c30 33 59 54 86 54c32 0 55 -31 55 -112c0 -177 -80 -383 -183 -383c-11 0 -24 2 -39 7c-12 -59 -23 -119 -34 -175z" />
    <glyph glyph-name="rupee" unicode="&#x20a8;" 
d="M232 -5l-65 282v3c95 89 132 150 132 218c0 60 -31 90 -94 87l-114 -585h-44l120 619c121 17 175 -30 175 -113c0 -80 -39 -138 -131 -231l66 -270zM512 109c0 -70 -40 -134 -190 -115l2 43c133 -22 146 15 146 66c0 61 -36 133 -54 205c-22 -29 -48 -59 -80 -91l-16 17
c40 50 66 87 86 123c0 9 -1 17 -1 26c0 73 42 144 74 144c31 0 39 -65 -29 -171c14 -80 62 -171 62 -247z" />
    <glyph glyph-name="rupeeindia" unicode="&#x20b9;" 
d="M432 11l-40 -23c-127 125 -187 181 -313 218l14 35c175 14 261 73 276 147h-255l7 37h251c-6 73 -72 142 -223 157l10 38h406l-11 -39h-276c87 -28 133 -90 138 -156h106l-6 -37h-103c-16 -89 -117 -153 -262 -170c90 -27 162 -88 281 -207z" />
    <glyph glyph-name="ruble" unicode="&#x20bd;" 
d="M493 462c0 84 -68 134 -237 120l-52 -265c186 1 289 41 289 145zM400 133h-231l-26 -133h-45l26 133h-98l7 37h98l21 110c-32 -1 -64 -1 -97 -1l7 38h98l58 301c229 26 320 -44 320 -150c0 -120 -121 -180 -341 -187l-21 -112h234z" />
    <glyph glyph-name="numbersign" unicode="#" 
d="M192 220l147 23l46 172l-147 -23zM129 -13l-36 -4l52 192l-110 -17l10 40l110 17l47 172l-111 -17l9 40l112 17l52 192l36 4l-51 -190l147 22l51 190l36 4l-50 -189l109 17l-9 -40l-111 -17l-46 -172l111 17l-10 -40l-112 -17l-52 -195l-36 -4l52 194l-148 -23z" />
    <glyph glyph-name="numero" unicode="&#x2116;" 
d="M515 623c44 0 72 -41 72 -120c0 -144 -73 -265 -148 -265c-44 0 -72 41 -72 120c0 144 73 265 148 265zM207 0l-35 526h-2l-101 -526h-39l121 620h47l35 -503h2l97 503l38 -1l-120 -620zM408 365c0 -56 17 -88 41 -88c48 0 97 111 97 219c0 56 -17 88 -41 88
c-48 0 -97 -111 -97 -219zM515 140h-188l8 38h188z" />
    <glyph glyph-name="paragraph" unicode="&#xb6;" 
d="M401 149l85 430c-37 3 -71 3 -102 0l-81 -410c30 -9 62 -16 98 -20zM130 359c0 -76 48 -139 136 -176l76 390c-139 -26 -212 -111 -212 -214zM249 -109l-42 -6l49 255c-108 41 -171 116 -171 212c0 163 177 295 450 269l-137 -702l-43 -6l39 197c-36 3 -69 9 -99 18z" />
    <glyph glyph-name="section" unicode="&#xa7;" 
d="M121 251c0 -50 72 -82 143 -117c120 30 171 60 171 99c0 49 -79 79 -150 119c-86 -14 -164 -46 -164 -101zM403 5c0 -77 -111 -151 -387 -85l10 46c247 -67 332 -19 332 35c0 93 -278 122 -278 242c0 72 74 111 172 129c-44 29 -78 64 -78 113c0 77 78 146 185 147
c89 1 133 -51 144 -147l-42 -8c-9 80 -46 116 -115 116c-73 0 -128 -46 -128 -100c0 -116 258 -143 258 -253c0 -54 -55 -93 -175 -125c56 -29 102 -63 102 -110z" />
    <glyph glyph-name="ordfeminine" unicode="&#xaa;" 
d="M224 283c45 0 108 39 151 81l44 216c-31 7 -60 11 -84 11c-99 0 -175 -102 -175 -217c0 -59 30 -91 64 -91zM491 275c-102 -56 -135 -22 -124 50c-47 -43 -110 -79 -157 -79c-52 0 -89 43 -89 121c0 134 101 258 233 258c31 0 67 -4 110 -14l-53 -260
c-14 -67 -10 -89 73 -55zM93 163h356l-7 -35h-356z" />
    <glyph glyph-name="ordmasculine" unicode="&#xba;" 
d="M484 476c0 -124 -92 -230 -205 -230c-83 0 -136 58 -136 151c0 124 92 230 205 230c82 0 136 -58 136 -151zM182 404c0 -75 40 -124 107 -124c92 0 156 83 156 189c0 76 -41 125 -107 125c-92 0 -156 -85 -156 -190zM92 163h333l-6 -35h-333z" />
    <glyph glyph-name="degree" unicode="&#xb0;" 
d="M343 667c85 0 145 -60 145 -152c0 -112 -88 -186 -181 -186c-84 0 -144 60 -144 152c0 112 88 186 180 186zM313 365c75 0 137 59 137 147c0 68 -42 120 -112 120c-75 0 -137 -60 -137 -148c0 -68 42 -119 112 -119z" />
    <glyph glyph-name="percent" unicode="%" 
d="M298 541c0 -95 -50 -175 -118 -175c-45 0 -76 32 -76 92c0 95 50 175 118 175c45 0 76 -32 76 -92zM95 -4l-30 24l447 603l30 -24zM255 541c0 41 -17 54 -38 54c-38 0 -70 -66 -70 -137c0 -41 17 -54 38 -54c38 0 70 66 70 137zM309 78c0 95 50 175 118 175
c45 0 76 -32 76 -92c0 -95 -50 -175 -118 -175c-45 0 -76 32 -76 92zM352 78c0 -41 17 -54 38 -54c38 0 70 66 70 137c0 41 -17 54 -38 54c-38 0 -70 -66 -70 -137z" />
    <glyph glyph-name="quotedbl" unicode="&#x22;" 
d="M419 389h-29l48 275h61l-2 -30zM208 389h-29l48 275h61l-2 -30z" />
    <glyph glyph-name="quotesingle" unicode="'" 
d="M316 389h-29l48 275h61l-2 -30z" />
    <glyph glyph-name="plus" unicode="+" 
d="M493 268h-193l-38 -198h-40l38 198h-192l7 37h193l38 198h40l-38 -198h193z" />
    <glyph glyph-name="minus" unicode="&#x2212;" 
d="M480 305l-8 -37h-384l8 37h384z" />
    <glyph glyph-name="divide" unicode="&#xf7;" 
d="M341 431h-61l14 72h60zM501 305l-8 -37h-425l7 37h426zM274 71h-61l14 72h60z" />
    <glyph glyph-name="equal" unicode="=" 
d="M503 421l-8 -37h-384l7 37h385zM460 197l-8 -37h-384l7 37h385z" />
    <glyph glyph-name="multiply" unicode="&#xd7;" 
d="M407 101l-126 157l-179 -149l-25 31l179 149l-127 157l32 27l127 -158l179 150l24 -32l-178 -149l126 -157z" />
    <glyph glyph-name="less" unicode="&#x3c;" 
d="M487 585l21 -33l-364 -263l-2 -8l262 -266l-30 -30l-277 284l7 39z" />
    <glyph glyph-name="greater" unicode="&#x3e;" 
d="M91 -15l-21 33l364 263l2 8l-262 266l30 30l277 -284l-7 -39z" />
    <glyph glyph-name="plusminus" unicode="&#xb1;" 
d="M445 78h-402l7 36h181l36 187h-184l7 36h184l37 191h40l-37 -191h185l-8 -36h-184l-36 -187h181z" />
    <glyph glyph-name="notequal" unicode="&#x2260;" 
d="M452 160h-221l-83 -146l-32 12l76 134h-124l7 37h138l106 187h-208l7 37h222l82 145l32 -12l-75 -133h124l-8 -37h-137l-106 -187h208z" />
    <glyph glyph-name="lessequal" unicode="&#x2264;" 
d="M159 343l-2 -8l275 -177l-22 -31l-301 194l9 40l371 213l15 -34zM432 61l-6 -37h-384l6 37h384z" />
    <glyph glyph-name="greaterequal" unicode="&#x2265;" 
d="M433 343l-265 201l23 31l289 -221l-7 -37l-375 -194l-13 35l346 177zM432 61l-6 -37h-384l6 37h384z" />
    <glyph glyph-name="approxequal" unicode="&#x2248;" 
d="M382 310c-79 0 -104 122 -161 122c-35 0 -71 -52 -112 -118l-26 15c56 96 95 140 145 140c79 0 104 -122 159 -122c35 0 71 51 111 116l26 -15c-56 -95 -92 -138 -142 -138zM343 106c-79 0 -105 122 -162 122c-35 0 -71 -52 -112 -118l-25 15c55 96 95 140 145 140
c79 0 104 -122 159 -122c35 0 71 51 110 116l26 -15c-55 -95 -91 -138 -141 -138z" />
    <glyph glyph-name="mu" unicode="&#xb5;" 
d="M72 -172l-43 -4l127 655l44 4l-62 -318c-19 -96 4 -134 54 -134c54 0 110 44 190 132l63 317h42l-71 -361c-17 -86 -11 -111 91 -63l8 -24c-135 -77 -166 -35 -142 84l1 3c-75 -84 -136 -129 -197 -129c-34 0 -56 13 -68 41z" />
    <glyph glyph-name="Omega" unicode="&#x2126;" 
d="M179 4l-2 -4h-170l7 37h123c-27 95 -42 180 -42 259c0 207 89 335 233 335c108 0 170 -72 170 -191c0 -106 -47 -247 -147 -403h114l-7 -37h-168l-1 4c112 175 166 320 166 424s-49 161 -133 161c-114 0 -185 -112 -185 -303c0 -81 15 -176 42 -282z" />
    <glyph glyph-name="onehalf" unicode="&#xbd;" 
d="M454 425h-284l7 34h130l54 279l-130 -11l4 28l133 19l12 61l39 3l-75 -379h119zM66 288l7 33h431l-7 -33h-431zM326 -210h-273l-1 32c173 110 274 179 274 256c0 57 -53 89 -199 68l6 36c156 23 233 -17 233 -97c0 -88 -92 -158 -255 -260h223z" />
    <glyph glyph-name="onethird" unicode="&#x2153;" 
d="M454 425h-284l7 34h130l54 279l-130 -11l4 28l133 19l12 61l39 3l-75 -379h119zM66 288l7 33h431l-7 -33h-431zM348 -103c0 -60 -63 -127 -287 -107l5 37c199 -19 245 24 245 64c0 37 -41 73 -178 100l3 19l199 141h-205l7 34h249l-4 -34l-199 -141
c124 -27 165 -68 165 -113z" />
    <glyph glyph-name="twothirds" unicode="&#x2154;" 
d="M440 425h-273l-1 32c173 110 274 179 274 256c0 57 -53 89 -199 68l6 36c156 23 233 -17 233 -97c0 -88 -92 -158 -255 -260h223zM66 288l7 33h431l-7 -33h-431zM348 -103c0 -60 -63 -127 -287 -107l5 37c199 -19 245 24 245 64c0 37 -41 73 -178 100l3 19l199 141h-205
l7 34h249l-4 -34l-199 -141c124 -27 165 -68 165 -113z" />
    <glyph glyph-name="onequarter" unicode="&#xbc;" 
d="M454 425h-284l7 34h130l54 279l-130 -11l4 28l133 19l12 61l39 3l-75 -379h119zM66 288l7 33h431l-7 -33h-431zM362 -121h-52l-18 -89h-35l17 89h-209l3 26c56 89 94 162 133 284l40 -2c-41 -126 -81 -197 -135 -275h175l27 141l37 4l-29 -145h57z" />
    <glyph glyph-name="threequarters" unicode="&#xbe;" 
d="M462 532c0 -60 -63 -127 -287 -107l5 37c199 -19 245 24 245 64c0 37 -41 73 -178 100l3 19l199 141h-205l7 34h249l-4 -34l-199 -141c124 -27 165 -68 165 -113zM66 288l7 33h431l-7 -33h-431zM362 -121h-52l-18 -89h-35l17 89h-209l3 26c56 89 94 162 133 284l40 -2
c-41 -126 -81 -197 -135 -275h175l27 141l37 4l-29 -145h57z" />
    <glyph glyph-name="onefifth" unicode="&#x2155;" 
d="M454 425h-284l7 34h130l54 279l-130 -11l4 28l133 19l12 61l39 3l-75 -379h119zM66 288l7 33h431l-7 -33h-431zM348 -89c0 -67 -74 -138 -286 -121l5 37c188 -17 244 32 244 78c0 40 -47 77 -197 100l46 180h226l-10 -34h-190l-30 -120c146 -25 192 -72 192 -120z" />
    <glyph glyph-name="twofifths" unicode="&#x2156;" 
d="M440 425h-273l-1 32c173 110 274 179 274 256c0 57 -53 89 -199 68l6 36c156 23 233 -17 233 -97c0 -88 -92 -158 -255 -260h223zM66 288l7 33h431l-7 -33h-431zM348 -89c0 -67 -74 -138 -286 -121l5 37c188 -17 244 32 244 78c0 40 -47 77 -197 100l46 180h226l-10 -34
h-190l-30 -120c146 -25 192 -72 192 -120z" />
    <glyph glyph-name="threefifths" unicode="&#x2157;" 
d="M462 532c0 -60 -63 -127 -287 -107l5 37c199 -19 245 24 245 64c0 37 -41 73 -178 100l3 19l199 141h-205l7 34h249l-4 -34l-199 -141c124 -27 165 -68 165 -113zM66 288l7 33h431l-7 -33h-431zM348 -89c0 -67 -74 -138 -286 -121l5 37c188 -17 244 32 244 78
c0 40 -47 77 -197 100l46 180h226l-10 -34h-190l-30 -120c146 -25 192 -72 192 -120z" />
    <glyph glyph-name="fourfifths" unicode="&#x2158;" 
d="M476 514h-52l-18 -89h-35l17 89h-209l3 26c56 89 94 162 133 284l40 -2c-41 -126 -81 -197 -135 -275h175l27 141l37 4l-29 -145h57zM66 288l7 33h431l-7 -33h-431zM348 -89c0 -67 -74 -138 -286 -121l5 37c188 -17 244 32 244 78c0 40 -47 77 -197 100l46 180h226
l-10 -34h-190l-30 -120c146 -25 192 -72 192 -120z" />
    <glyph glyph-name="onesixth" unicode="&#x2159;" 
d="M454 425h-284l7 34h130l54 279l-130 -11l4 28l133 19l12 61l39 3l-75 -379h119zM66 288l7 33h431l-7 -33h-431zM214 -219c-74 0 -136 45 -136 140c0 101 67 217 268 275l9 -34c-153 -40 -214 -114 -233 -182c105 87 238 46 238 -62c0 -82 -64 -137 -146 -137zM220 -186
c64 0 105 42 105 98c0 86 -111 122 -209 39c-1 -8 -1 -15 -1 -23c0 -83 49 -114 105 -114z" />
    <glyph glyph-name="fivesixths" unicode="&#x215a;" 
d="M462 546c0 -67 -74 -138 -286 -121l5 37c188 -17 244 32 244 78c0 40 -47 77 -197 100l46 180h226l-10 -34h-190l-30 -120c146 -25 192 -72 192 -120zM66 288l7 33h431l-7 -33h-431zM214 -219c-74 0 -136 45 -136 140c0 101 67 217 268 275l9 -34
c-153 -40 -214 -114 -233 -182c105 87 238 46 238 -62c0 -82 -64 -137 -146 -137zM220 -186c64 0 105 42 105 98c0 86 -111 122 -209 39c-1 -8 -1 -15 -1 -23c0 -83 49 -114 105 -114z" />
    <glyph glyph-name="oneeighth" unicode="&#x215b;" 
d="M454 425h-284l7 34h130l54 279l-130 -11l4 28l133 19l12 61l39 3l-75 -379h119zM66 288l7 33h431l-7 -33h-431zM336 -118c0 -56 -61 -102 -144 -102c-73 0 -125 35 -125 87c0 37 21 72 126 135c-37 31 -68 64 -68 99c0 57 76 109 223 84l-12 -38
c-130 28 -174 -5 -174 -42c0 -27 29 -55 63 -85c40 23 90 49 153 80l14 -23c-60 -29 -108 -54 -146 -75c45 -38 90 -78 90 -120zM199 -187c60 0 101 29 101 65c0 34 -43 69 -86 105c-92 -54 -109 -81 -109 -106c0 -40 40 -64 94 -64z" />
    <glyph glyph-name="threeeighths" unicode="&#x215c;" 
d="M462 532c0 -60 -63 -127 -287 -107l5 37c199 -19 245 24 245 64c0 37 -41 73 -178 100l3 19l199 141h-205l7 34h249l-4 -34l-199 -141c124 -27 165 -68 165 -113zM66 288l7 33h431l-7 -33h-431zM336 -118c0 -56 -61 -102 -144 -102c-73 0 -125 35 -125 87
c0 37 21 72 126 135c-37 31 -68 64 -68 99c0 57 76 109 223 84l-12 -38c-130 28 -174 -5 -174 -42c0 -27 29 -55 63 -85c40 23 90 49 153 80l14 -23c-60 -29 -108 -54 -146 -75c45 -38 90 -78 90 -120zM199 -187c60 0 101 29 101 65c0 34 -43 69 -86 105
c-92 -54 -109 -81 -109 -106c0 -40 40 -64 94 -64z" />
    <glyph glyph-name="fiveeighths" unicode="&#x215d;" 
d="M462 546c0 -67 -74 -138 -286 -121l5 37c188 -17 244 32 244 78c0 40 -47 77 -197 100l46 180h226l-10 -34h-190l-30 -120c146 -25 192 -72 192 -120zM66 288l7 33h431l-7 -33h-431zM336 -118c0 -56 -61 -102 -144 -102c-73 0 -125 35 -125 87c0 37 21 72 126 135
c-37 31 -68 64 -68 99c0 57 76 109 223 84l-12 -38c-130 28 -174 -5 -174 -42c0 -27 29 -55 63 -85c40 23 90 49 153 80l14 -23c-60 -29 -108 -54 -146 -75c45 -38 90 -78 90 -120zM199 -187c60 0 101 29 101 65c0 34 -43 69 -86 105c-92 -54 -109 -81 -109 -106
c0 -40 40 -64 94 -64z" />
    <glyph glyph-name="seveneighths" unicode="&#x215e;" 
d="M260 422l-41 5c70 120 154 242 255 357v2h-236l7 34h277l-7 -31c-100 -118 -185 -243 -255 -367zM66 288l7 33h431l-7 -33h-431zM336 -118c0 -56 -61 -102 -144 -102c-73 0 -125 35 -125 87c0 37 21 72 126 135c-37 31 -68 64 -68 99c0 57 76 109 223 84l-12 -38
c-130 28 -174 -5 -174 -42c0 -27 29 -55 63 -85c40 23 90 49 153 80l14 -23c-60 -29 -108 -54 -146 -75c45 -38 90 -78 90 -120zM199 -187c60 0 101 29 101 65c0 34 -43 69 -86 105c-92 -54 -109 -81 -109 -106c0 -40 40 -64 94 -64z" />
    <glyph glyph-name="zero.sup" unicode="&#x2070;" 
d="M169 479c0 136 82 259 190 259c74 0 122 -55 122 -154c0 -136 -82 -259 -190 -259c-74 0 -122 55 -122 154zM443 580c0 81 -35 124 -91 124c-86 0 -145 -108 -145 -221c0 -81 35 -124 91 -124c86 0 145 108 145 221z" />
    <glyph glyph-name="one.sup" unicode="&#xb9;" 
d="M436 335h-284l7 34h130l54 279l-130 -11l4 28l133 19l12 61l39 3l-75 -379h119z" />
    <glyph glyph-name="two.sup" unicode="&#xb2;" 
d="M422 335h-273l-1 32c173 110 274 179 274 256c0 57 -53 89 -199 68l6 36c156 23 233 -17 233 -97c0 -88 -92 -158 -255 -260h223z" />
    <glyph glyph-name="three.sup" unicode="&#xb3;" 
d="M444 442c0 -60 -63 -127 -287 -107l5 37c199 -19 245 24 245 64c0 37 -41 73 -178 100l3 19l199 141h-205l7 34h249l-4 -34l-199 -141c124 -27 165 -68 165 -113z" />
    <glyph glyph-name="four.sup" unicode="&#x2074;" 
d="M458 424h-52l-18 -89h-35l17 89h-209l3 26c56 89 94 162 133 284l40 -2c-41 -126 -81 -197 -135 -275h175l27 141l37 4l-29 -145h57z" />
    <glyph glyph-name="five.sup" unicode="&#x2075;" 
d="M444 456c0 -67 -74 -138 -286 -121l5 37c188 -17 244 32 244 78c0 40 -47 77 -197 100l46 180h226l-10 -34h-190l-30 -120c146 -25 192 -72 192 -120z" />
    <glyph glyph-name="six.sup" unicode="&#x2076;" 
d="M310 326c-74 0 -136 45 -136 140c0 101 67 217 268 275l9 -34c-153 -40 -214 -114 -233 -182c105 87 238 46 238 -62c0 -82 -64 -137 -146 -137zM316 359c64 0 105 42 105 98c0 86 -111 122 -209 39c-1 -8 -1 -15 -1 -23c0 -83 49 -114 105 -114z" />
    <glyph glyph-name="seven.sup" unicode="&#x2077;" 
d="M242 332l-41 5c70 120 154 242 255 357v2h-236l7 34h277l-7 -31c-100 -118 -185 -243 -255 -367z" />
    <glyph glyph-name="eight.sup" unicode="&#x2078;" 
d="M432 427c0 -56 -61 -102 -144 -102c-73 0 -125 35 -125 87c0 37 21 72 126 135c-37 31 -68 64 -68 99c0 57 76 109 223 84l-12 -38c-130 28 -174 -5 -174 -42c0 -27 29 -55 63 -85c40 23 90 49 153 80l14 -23c-60 -29 -108 -54 -146 -75c45 -38 90 -78 90 -120zM295 358
c60 0 101 29 101 65c0 34 -43 69 -86 105c-92 -54 -109 -81 -109 -106c0 -40 40 -64 94 -64z" />
    <glyph glyph-name="nine.sup" unicode="&#x2079;" 
d="M207 325l-9 34c153 40 214 114 233 182c-105 -87 -238 -46 -238 62c0 82 64 137 146 137c74 0 136 -45 136 -140c0 -101 -67 -217 -268 -275zM228 609c0 -86 111 -122 209 -39c1 8 1 15 1 23c0 83 -49 114 -105 114c-64 0 -105 -42 -105 -98z" />
    <glyph glyph-name="zero.inf" unicode="&#x2080;" 
d="M85 -6c0 136 82 259 190 259c74 0 122 -55 122 -154c0 -136 -82 -259 -190 -259c-74 0 -122 55 -122 154zM359 95c0 81 -35 124 -91 124c-86 0 -145 -108 -145 -221c0 -81 35 -124 91 -124c86 0 145 108 145 221z" />
    <glyph glyph-name="one.inf" unicode="&#x2081;" 
d="M352 -150h-284l7 34h130l54 279l-130 -11l4 28l133 19l12 61l39 3l-75 -379h119z" />
    <glyph glyph-name="two.inf" unicode="&#x2082;" 
d="M338 -150h-273l-1 32c173 110 274 179 274 256c0 57 -53 89 -199 68l6 36c156 23 233 -17 233 -97c0 -88 -92 -158 -255 -260h223z" />
    <glyph glyph-name="three.inf" unicode="&#x2083;" 
d="M360 -43c0 -60 -63 -127 -287 -107l5 37c199 -19 245 24 245 64c0 37 -41 73 -178 100l3 19l199 141h-205l7 34h249l-4 -34l-199 -141c124 -27 165 -68 165 -113z" />
    <glyph glyph-name="four.inf" unicode="&#x2084;" 
d="M374 -61h-52l-18 -89h-35l17 89h-209l3 26c56 89 94 162 133 284l40 -2c-41 -126 -81 -197 -135 -275h175l27 141l37 4l-29 -145h57z" />
    <glyph glyph-name="five.inf" unicode="&#x2085;" 
d="M360 -29c0 -67 -74 -138 -286 -121l5 37c188 -17 244 32 244 78c0 40 -47 77 -197 100l46 180h226l-10 -34h-190l-30 -120c146 -25 192 -72 192 -120z" />
    <glyph glyph-name="six.inf" unicode="&#x2086;" 
d="M226 -159c-74 0 -136 45 -136 140c0 101 67 217 268 275l9 -34c-153 -40 -214 -114 -233 -182c105 87 238 46 238 -62c0 -82 -64 -137 -146 -137zM232 -126c64 0 105 42 105 98c0 86 -111 122 -209 39c-1 -8 -1 -15 -1 -23c0 -83 49 -114 105 -114z" />
    <glyph glyph-name="seven.inf" unicode="&#x2087;" 
d="M158 -153l-41 5c70 120 154 242 255 357v2h-236l7 34h277l-7 -31c-100 -118 -185 -243 -255 -367z" />
    <glyph glyph-name="eight.inf" unicode="&#x2088;" 
d="M348 -58c0 -56 -61 -102 -144 -102c-73 0 -125 35 -125 87c0 37 21 72 126 135c-37 31 -68 64 -68 99c0 57 76 109 223 84l-12 -38c-130 28 -174 -5 -174 -42c0 -27 29 -55 63 -85c40 23 90 49 153 80l14 -23c-60 -29 -108 -54 -146 -75c45 -38 90 -78 90 -120zM211 -127
c60 0 101 29 101 65c0 34 -43 69 -86 105c-92 -54 -109 -81 -109 -106c0 -40 40 -64 94 -64z" />
    <glyph glyph-name="nine.inf" unicode="&#x2089;" 
d="M123 -160l-9 34c153 40 214 114 233 182c-105 -87 -238 -46 -238 62c0 82 64 137 146 137c74 0 136 -45 136 -140c0 -101 -67 -217 -268 -275zM144 124c0 -86 111 -122 209 -39c1 8 1 15 1 23c0 83 -49 114 -105 114c-64 0 -105 -42 -105 -98z" />
    <glyph glyph-name="check.1" unicode="&#xe10c;" 
d="M571 640c-138 -199 -259 -421 -359 -662h-39l-79 358l41 13l64 -312h3c90 225 201 438 327 627z" />
    <glyph glyph-name="check.2" unicode="&#xe10d;" 
d="M318 -3l-75 238l-172 -232l-27 15l185 258l-67 202l42 13l57 -179l249 354l41 -24l-276 -371l86 -268z" />
    <glyph glyph-name="uni00A0" unicode="&#xa0;" 
 />
    <glyph glyph-name="hcoslug" unicode="&#xe10b;" 
d="M500 700v-800h-450v800h450zM200 296c0 13 8 22 20 22c13 0 22 -11 22 -29c0 -12 -5 -24 -14 -37c-17 16 -28 27 -28 44zM249 232c14 9 24 18 31 25c17 -17 14 -35 -1 -60c-9 11 -18 23 -30 35zM210 139c-22 0 -39 18 -39 41c0 11 4 22 12 30c14 -13 35 -35 56 -62
c-8 -6 -17 -9 -29 -9zM301 173c11 15 23 25 35 32c6 -12 18 -19 32 -19c21 0 37 17 37 40c0 24 -16 39 -37 39c-19 0 -33 -10 -45 -28c-2 20 -17 28 -37 28c5 7 7 15 7 25c0 26 -25 56 -71 56c-51 0 -82 -32 -82 -64c0 -22 7 -35 23 -52c-40 -13 -61 -37 -61 -68
c0 -40 36 -70 81 -70c32 0 57 11 78 34c25 -26 42 -34 64 -34c32 0 59 27 60 71l-5 1c-8 -13 -17 -22 -32 -22s-28 9 -47 31zM229 68l-9 -1v-7h-5v-5h5v-15c0 -6 3 -10 9 -10s9 3 11 10l-4 1c-1 -4 -2 -5 -4 -5s-3 1 -3 4v15h10v5h-10v8zM145 46c0 -10 7 -16 16 -16
s16 7 16 16s-7 15 -16 15s-16 -6 -16 -15zM167 46c0 -9 -2 -12 -6 -12s-6 3 -6 12c0 8 2 11 6 11s6 -3 6 -11zM299 45c0 -6 -2 -10 -5 -10c-5 0 -6 4 -6 10c0 5 1 10 6 10c3 0 5 -4 5 -10zM179 36v-5h16v5h-3v11c0 5 3 8 6 8s4 -3 4 -6v-13h-3v-5h17v5h-5v14
c0 6 -2 11 -9 11c-5 0 -8 -3 -10 -7v6h-13v-5h4v-19h-4zM108 36v-5h23v5h-7v12h3c4 0 4 -1 5 -6h5v17h-5c-1 -5 -1 -6 -5 -6h-3v14h8c6 0 7 -2 9 -10h5v15h-38v-5h6v-31h-6zM241 41v-10h5l1 3c2 -2 5 -4 10 -4c7 0 10 4 10 9c0 11 -18 9 -18 14c0 2 2 3 4 3c3 0 5 -1 8 -5h5
v10h-5l-1 -4c-2 3 -5 4 -8 4c-7 0 -11 -5 -11 -9c0 -12 18 -8 18 -15c0 -1 -1 -3 -4 -3s-6 3 -9 7h-5zM279 69v-39h4l3 6c2 -4 5 -6 11 -6c9 0 12 9 12 16c0 9 -5 15 -12 15c-4 0 -8 -3 -9 -7v20h-14v-5h5zM318 24c2 2 1 7 -4 7c-3 0 -5 -2 -5 -5c0 -4 3 -7 9 -7s10 5 13 12
l10 24h4v5h-13v-5h4l-6 -15l-7 15h4v5h-18v-5h3s9 -18 12 -25c0 -4 -3 -6 -6 -6zM363 0h-14v-6h5c-1 -2 -3 -5 -5 -7c-3 3 -7 8 -9 10c5 3 8 5 8 10s-4 9 -10 9c-9 0 -13 -6 -13 -11c0 -4 2 -7 5 -10c-6 -2 -10 -5 -10 -11s5 -10 12 -10c6 0 10 2 13 5c3 -3 5 -5 9 -5
c6 0 8 4 9 9l-3 1c-1 -3 -2 -4 -3 -4s-3 2 -5 4c3 3 5 6 7 10h4v6zM235 4v4c0 6 2 8 4 8s3 -1 3 -1s-1 -1 -1 -3s2 -4 5 -4v-4h-11zM367 -5c0 -14 8 -21 21 -21c11 0 17 7 18 17h-6c-1 -6 -4 -12 -10 -12c-8 0 -12 6 -12 17c0 12 4 17 10 17s8 -3 11 -12h6v16h-6v-4
c-3 3 -7 5 -12 5c-11 0 -20 -8 -20 -23zM338 -1c-3 3 -5 6 -5 8c0 3 2 4 4 4c3 0 5 -2 5 -5s-2 -6 -4 -7zM270 -12h19c1 10 -3 17 -14 17c-8 0 -15 -6 -15 -16c0 -9 6 -15 16 -15c8 0 12 5 13 11h-5c-1 -4 -3 -6 -7 -6c-5 0 -7 3 -7 9zM200 -12h19c1 10 -3 17 -14 17
c-8 0 -15 -6 -15 -16c0 -9 6 -15 16 -15c8 0 12 5 13 11h-5c-1 -4 -3 -6 -7 -6c-5 0 -7 3 -7 9zM156 -10c0 -10 7 -16 16 -16s16 7 16 16s-7 15 -16 15s-16 -6 -16 -15zM408 -10c0 -10 7 -16 16 -16s16 7 16 16s-7 15 -16 15s-16 -6 -16 -15zM270 -8c0 7 2 9 5 9
c4 0 5 -3 5 -9h-10zM200 -8c0 7 2 9 5 9c4 0 5 -3 5 -9h-10zM178 -10c0 -9 -2 -12 -6 -12s-6 3 -6 12c0 8 2 11 6 11s6 -3 6 -11zM430 -10c0 -9 -2 -12 -6 -12s-6 3 -6 12c0 8 2 11 6 11s6 -3 6 -11zM222 -20v-5h17v5h-4v19h11v-19h-4v-5h17v5h-4v39l-8 -2c-2 1 -4 2 -8 2
c-6 0 -13 -4 -13 -14v-1h-5v-5h5v-19h-4zM291 -20v-5h19v5h-6v12c1 4 4 7 5 7v-1c0 -3 3 -4 5 -4c3 0 5 2 5 5c0 4 -2 6 -6 6s-7 -2 -9 -7v6h-13v-5h4v-19h-4zM108 -20v-5h21v5h-5v14h16v-14h-5v-5h21v5h-6v31h6v5h-21v-5h5v-12h-16v12h5v5h-21v-5h6v-31h-6zM342 -18
c-2 -2 -4 -3 -6 -3c-4 0 -7 3 -7 7c0 3 1 5 3 7c4 -4 8 -9 10 -11zM453 -20c0 3 -2 6 -6 6s-6 -3 -6 -6s2 -6 6 -6s6 3 6 6z" />
    <glyph glyph-name="f.lig" 
d="M394 0c0 -90 -81 -151 -166 -151c-77 0 -145 58 -145 210c0 67 13 141 35 213l-29 17l6 23h36c72 206 215 392 347 392c99 0 126 -106 -12 -236l-18 15c99 105 85 177 17 177c-105 0 -226 -164 -292 -348l314 -2l-6 -36l-301 3c147 -100 214 -197 214 -277zM243 -113
c59 0 115 40 115 109c0 72 -60 162 -203 260c-18 -66 -29 -132 -29 -193c0 -133 54 -176 117 -176z" />
    <glyph glyph-name="l.ultra" 
d="M443 66c-192 -119 -311 -90 -311 94c0 268 177 545 306 545c54 0 84 -36 84 -95c0 -114 -91 -275 -345 -460c7 -138 95 -147 253 -58zM425 661c-100 0 -243 -238 -249 -474c228 170 303 312 303 407c0 43 -21 67 -54 67z" />
    <glyph glyph-name="fraction" unicode="&#x2044;" 
d="M4 -160l-34 20l583 890l33 -20z" />
    <glyph glyph-name="fraction.afrc" 
d="M66 288l7 33h431l-7 -33h-431z" />
    <glyph glyph-name="zero.num" 
d="M187 569c0 136 82 259 190 259c74 0 122 -55 122 -154c0 -136 -82 -259 -190 -259c-74 0 -122 55 -122 154zM461 670c0 81 -35 124 -91 124c-86 0 -145 -108 -145 -221c0 -81 35 -124 91 -124c86 0 145 108 145 221z" />
    <glyph glyph-name="one.num" 
d="M454 425h-284l7 34h130l54 279l-130 -11l4 28l133 19l12 61l39 3l-75 -379h119z" />
    <glyph glyph-name="two.num" 
d="M440 425h-273l-1 32c173 110 274 179 274 256c0 57 -53 89 -199 68l6 36c156 23 233 -17 233 -97c0 -88 -92 -158 -255 -260h223z" />
    <glyph glyph-name="three.num" 
d="M462 532c0 -60 -63 -127 -287 -107l5 37c199 -19 245 24 245 64c0 37 -41 73 -178 100l3 19l199 141h-205l7 34h249l-4 -34l-199 -141c124 -27 165 -68 165 -113z" />
    <glyph glyph-name="four.num" 
d="M476 514h-52l-18 -89h-35l17 89h-209l3 26c56 89 94 162 133 284l40 -2c-41 -126 -81 -197 -135 -275h175l27 141l37 4l-29 -145h57z" />
    <glyph glyph-name="five.num" 
d="M462 546c0 -67 -74 -138 -286 -121l5 37c188 -17 244 32 244 78c0 40 -47 77 -197 100l46 180h226l-10 -34h-190l-30 -120c146 -25 192 -72 192 -120z" />
    <glyph glyph-name="six.num" 
d="M328 416c-74 0 -136 45 -136 140c0 101 67 217 268 275l9 -34c-153 -40 -214 -114 -233 -182c105 87 238 46 238 -62c0 -82 -64 -137 -146 -137zM334 449c64 0 105 42 105 98c0 86 -111 122 -209 39c-1 -8 -1 -15 -1 -23c0 -83 49 -114 105 -114z" />
    <glyph glyph-name="seven.num" 
d="M260 422l-41 5c70 120 154 242 255 357v2h-236l7 34h277l-7 -31c-100 -118 -185 -243 -255 -367z" />
    <glyph glyph-name="eight.num" 
d="M450 517c0 -56 -61 -102 -144 -102c-73 0 -125 35 -125 87c0 37 21 72 126 135c-37 31 -68 64 -68 99c0 57 76 109 223 84l-12 -38c-130 28 -174 -5 -174 -42c0 -27 29 -55 63 -85c40 23 90 49 153 80l14 -23c-60 -29 -108 -54 -146 -75c45 -38 90 -78 90 -120zM313 448
c60 0 101 29 101 65c0 34 -43 69 -86 105c-92 -54 -109 -81 -109 -106c0 -40 40 -64 94 -64z" />
    <glyph glyph-name="nine.num" 
d="M225 415l-9 34c153 40 214 114 233 182c-105 -87 -238 -46 -238 62c0 82 64 137 146 137c74 0 136 -45 136 -140c0 -101 -67 -217 -268 -275zM246 699c0 -86 111 -122 209 -39c1 8 1 15 1 23c0 83 -49 114 -105 114c-64 0 -105 -42 -105 -98z" />
    <glyph glyph-name="zero.den" 
d="M73 -66c0 136 82 259 190 259c74 0 122 -55 122 -154c0 -136 -82 -259 -190 -259c-74 0 -122 55 -122 154zM347 35c0 81 -35 124 -91 124c-86 0 -145 -108 -145 -221c0 -81 35 -124 91 -124c86 0 145 108 145 221z" />
    <glyph glyph-name="one.den" 
d="M340 -210h-284l7 34h130l54 279l-130 -11l4 28l133 19l12 61l39 3l-75 -379h119z" />
    <glyph glyph-name="two.den" 
d="M326 -210h-273l-1 32c173 110 274 179 274 256c0 57 -53 89 -199 68l6 36c156 23 233 -17 233 -97c0 -88 -92 -158 -255 -260h223z" />
    <glyph glyph-name="three.den" 
d="M348 -103c0 -60 -63 -127 -287 -107l5 37c199 -19 245 24 245 64c0 37 -41 73 -178 100l3 19l199 141h-205l7 34h249l-4 -34l-199 -141c124 -27 165 -68 165 -113z" />
    <glyph glyph-name="four.den" 
d="M362 -121h-52l-18 -89h-35l17 89h-209l3 26c56 89 94 162 133 284l40 -2c-41 -126 -81 -197 -135 -275h175l27 141l37 4l-29 -145h57z" />
    <glyph glyph-name="five.den" 
d="M348 -89c0 -67 -74 -138 -286 -121l5 37c188 -17 244 32 244 78c0 40 -47 77 -197 100l46 180h226l-10 -34h-190l-30 -120c146 -25 192 -72 192 -120z" />
    <glyph glyph-name="six.den" 
d="M214 -219c-74 0 -136 45 -136 140c0 101 67 217 268 275l9 -34c-153 -40 -214 -114 -233 -182c105 87 238 46 238 -62c0 -82 -64 -137 -146 -137zM220 -186c64 0 105 42 105 98c0 86 -111 122 -209 39c-1 -8 -1 -15 -1 -23c0 -83 49 -114 105 -114z" />
    <glyph glyph-name="seven.den" 
d="M146 -213l-41 5c70 120 154 242 255 357v2h-236l7 34h277l-7 -31c-100 -118 -185 -243 -255 -367z" />
    <glyph glyph-name="eight.den" 
d="M336 -118c0 -56 -61 -102 -144 -102c-73 0 -125 35 -125 87c0 37 21 72 126 135c-37 31 -68 64 -68 99c0 57 76 109 223 84l-12 -38c-130 28 -174 -5 -174 -42c0 -27 29 -55 63 -85c40 23 90 49 153 80l14 -23c-60 -29 -108 -54 -146 -75c45 -38 90 -78 90 -120z
M199 -187c60 0 101 29 101 65c0 34 -43 69 -86 105c-92 -54 -109 -81 -109 -106c0 -40 40 -64 94 -64z" />
    <glyph glyph-name="nine.den" 
d="M111 -220l-9 34c153 40 214 114 233 182c-105 -87 -238 -46 -238 62c0 82 64 137 146 137c74 0 136 -45 136 -140c0 -101 -67 -217 -268 -275zM132 64c0 -86 111 -122 209 -39c1 8 1 15 1 23c0 83 -49 114 -105 114c-64 0 -105 -42 -105 -98z" />
    <glyph glyph-name="zero.small" 
d="M109 144c0 136 82 259 190 259c74 0 122 -55 122 -154c0 -136 -82 -259 -190 -259c-74 0 -122 55 -122 154zM383 245c0 81 -35 124 -91 124c-86 0 -145 -108 -145 -221c0 -81 35 -124 91 -124c86 0 145 108 145 221z" />
    <glyph glyph-name="one.small" 
d="M376 0h-284l7 34h130l54 279l-130 -11l4 28l133 19l12 61l39 3l-75 -379h119z" />
    <glyph glyph-name="two.small" 
d="M362 0h-273l-1 32c173 110 274 179 274 256c0 57 -53 89 -199 68l6 36c156 23 233 -17 233 -97c0 -88 -92 -158 -255 -260h223z" />
    <glyph glyph-name="three.small" 
d="M384 107c0 -60 -63 -127 -287 -107l5 37c199 -19 245 24 245 64c0 37 -41 73 -178 100l3 19l199 141h-205l7 34h249l-4 -34l-199 -141c124 -27 165 -68 165 -113z" />
    <glyph glyph-name="four.small" 
d="M398 89h-52l-18 -89h-35l17 89h-209l3 26c56 89 94 162 133 284l40 -2c-41 -126 -81 -197 -135 -275h175l27 141l37 4l-29 -145h57z" />
    <glyph glyph-name="five.small" 
d="M384 121c0 -67 -74 -138 -286 -121l5 37c188 -17 244 32 244 78c0 40 -47 77 -197 100l46 180h226l-10 -34h-190l-30 -120c146 -25 192 -72 192 -120z" />
    <glyph glyph-name="six.small" 
d="M250 -9c-74 0 -136 45 -136 140c0 101 67 217 268 275l9 -34c-153 -40 -214 -114 -233 -182c105 87 238 46 238 -62c0 -82 -64 -137 -146 -137zM256 24c64 0 105 42 105 98c0 86 -111 122 -209 39c-1 -8 -1 -15 -1 -23c0 -83 49 -114 105 -114z" />
    <glyph glyph-name="seven.small" 
d="M182 -3l-41 5c70 120 154 242 255 357v2h-236l7 34h277l-7 -31c-100 -118 -185 -243 -255 -367z" />
    <glyph glyph-name="eight.small" 
d="M372 92c0 -56 -61 -102 -144 -102c-73 0 -125 35 -125 87c0 37 21 72 126 135c-37 31 -68 64 -68 99c0 57 76 109 223 84l-12 -38c-130 28 -174 -5 -174 -42c0 -27 29 -55 63 -85c40 23 90 49 153 80l14 -23c-60 -29 -108 -54 -146 -75c45 -38 90 -78 90 -120zM235 23
c60 0 101 29 101 65c0 34 -43 69 -86 105c-92 -54 -109 -81 -109 -106c0 -40 40 -64 94 -64z" />
    <glyph glyph-name="nine.small" 
d="M147 -10l-9 34c153 40 214 114 233 182c-105 -87 -238 -46 -238 62c0 82 64 137 146 137c74 0 136 -45 136 -140c0 -101 -67 -217 -268 -275zM168 274c0 -86 111 -122 209 -39c1 8 1 15 1 23c0 83 -49 114 -105 114c-64 0 -105 -42 -105 -98z" />
    <glyph glyph-name="acute" unicode="&#xb4;" 
d="M177 577c65 43 151 116 203 170l36 -38c-60 -51 -156 -113 -227 -153z" />
    <glyph glyph-name="hungarumlaut" unicode="&#x2dd;" 
d="M150 556l-19 16c49 53 107 135 141 190l47 -26c-41 -53 -111 -128 -169 -180zM356 556l-20 16c50 53 106 132 140 188l48 -24c-40 -54 -110 -129 -168 -180z" />
    <glyph glyph-name="caron.alt" 
d="M282 797l58 4c2 -74 -18 -157 -98 -249l-20 12c69 95 68 161 60 233z" />
    <glyph glyph-name="grave" unicode="`" 
d="M359 568l-15 -20c-55 40 -136 113 -184 170l39 36c40 -59 109 -140 160 -186z" />
    <glyph glyph-name="circumflex" unicode="&#x2c6;" 
d="M399 558l-106 128l-166 -124l-21 26l195 147h1l128 -151z" />
    <glyph glyph-name="caron" unicode="&#x2c7;" 
d="M261 555h-1l-129 151l32 26l105 -128l166 124l22 -26z" />
    <glyph glyph-name="breve" unicode="&#x2d8;" 
d="M429 724l26 -18c-66 -89 -131 -141 -198 -141c-63 0 -110 45 -148 145l36 17c36 -90 69 -124 121 -124c57 0 103 44 163 121z" />
    <glyph glyph-name="tilde" unicode="&#x2dc;" 
d="M345 603c33 0 68 51 106 114l25 -15c-50 -87 -93 -135 -141 -135c-68 0 -79 115 -130 115c-33 0 -68 -45 -106 -108l-25 15c50 87 94 129 141 129c68 0 79 -115 130 -115z" />
    <glyph glyph-name="macron" unicode="&#xaf;" 
d="M431 653l-7 -38h-313l8 38h312z" />
    <glyph glyph-name="dieresis" unicode="&#xa8;" 
d="M392 569l-42 -2l30 130l50 1zM183 566l-42 -1l31 129l49 1z" />
    <glyph glyph-name="dotaccent" unicode="&#x2d9;" 
d="M279 567l-42 -1l31 129l50 1z" />
    <glyph glyph-name="ring" unicode="&#x2da;" 
d="M372 749c72 0 124 -42 124 -98c0 -61 -57 -109 -135 -109c-72 0 -124 42 -124 98c0 61 57 109 135 109zM368 718c-54 0 -95 -33 -95 -74c0 -40 38 -71 92 -71c55 0 96 33 96 74c0 39 -39 71 -93 71z" />
    <glyph glyph-name="commaaccent.rot" 
d="M342 742c-56 -74 -56 -129 -43 -185l-61 -3c-4 59 20 128 87 198z" />
    <glyph glyph-name="commaaccent" unicode="&#x326;" 
d="M200 -258c56 74 56 129 43 185l61 3c4 -59 -20 -128 -87 -198z" />
    <glyph glyph-name="cedilla" unicode="&#xb8;" 
d="M129 -142l-26 9c40 96 86 141 138 141c62 0 108 -55 100 -179l-42 -1c7 102 -22 144 -63 144c-39 0 -73 -42 -107 -114z" />
    <glyph glyph-name="ogonek" unicode="&#x2db;" 
d="M382 22l16 -21c-134 -52 -190 -97 -190 -135c0 -35 43 -55 154 -9l8 -23c-134 -72 -205 -35 -205 20c0 50 64 108 217 168z" />
    <glyph glyph-name="underscore.alt" 
d="M511 -50l-7 -36h-569l7 36h569z" />
    </font>
</defs>
</svg>
